<svg version="1.1" xmlns="http://www.w3.org/2000/svg" x="0" y="0" viewBox="0 0 311.81 238" style="enable-background:new 0 0 311.81 238" xml:space="preserve"><line style="fill:none;stroke:#6d6e71;stroke-width:.5;stroke-linecap:square;stroke-linejoin:round" x1="65.95" y1="3.73" x2="63.82" y2="3.73"/><line style="fill:none;stroke:#6d6e71;stroke-width:.5;stroke-linecap:square;stroke-linejoin:round" x1="65.95" y1="206.9" x2="63.82" y2="206.9"/><line style="fill:none;stroke:#6d6e71;stroke-width:.5;stroke-linecap:square;stroke-linejoin:round" x1="65.84" y1="206.9" x2="65.84" y2="3.73"/><line style="fill:none;stroke:#6d6e71;stroke-width:.5;stroke-linecap:square;stroke-linejoin:round" x1="280.33" y1="207.19" x2="280.33" y2="209.32"/><line style="fill:none;stroke:#6d6e71;stroke-width:.5;stroke-linecap:square;stroke-linejoin:round" x1="65.84" y1="207.19" x2="65.84" y2="209.32"/><line style="fill:none;stroke:#6d6e71;stroke-width:.5;stroke-linecap:square;stroke-linejoin:round" x1="65.84" y1="206.9" x2="280.33" y2="207.19"/><text transform="translate(53.707 208.897)" style="font-family:'Asap-Regular';font-size:7px">0</text><text transform="translate(49.707 167.354)" style="font-family:'Asap-Regular';font-size:7px">23</text><text transform="translate(64.627 220.578)" style="font-family:'Asap-Regular';font-size:7px">0</text><line style="fill:none;stroke:#6d6e71;stroke-width:.5;stroke-linecap:square;stroke-linejoin:round" x1="229.33" y1="207.19" x2="229.33" y2="209.32"/><line style="fill:none;stroke:#6d6e71;stroke-width:.5;stroke-linecap:square;stroke-linejoin:round" x1="192.33" y1="207.19" x2="192.33" y2="209.32"/><line style="fill:none;stroke:#6d6e71;stroke-width:.5;stroke-linecap:square;stroke-linejoin:round" x1="65.95" y1="27.73" x2="63.82" y2="27.73"/><line style="fill:none;stroke:#6d6e71;stroke-width:.5;stroke-linecap:square;stroke-linejoin:round" x1="65.95" y1="165.73" x2="63.82" y2="165.73"/><text transform="translate(45.707 30.355)" style="font-family:'Asap-Regular';font-size:7px">100</text><text transform="translate(187.627 220.578)" style="font-family:'Asap-Regular';font-size:7px">70</text><text transform="translate(225.627 220.578)" style="font-family:'Asap-Regular';font-size:7px">91</text><polyline style="fill:none;stroke:#939598;stroke-width:.5;stroke-miterlimit:10;stroke-dasharray:1.4173" points="65.95 165.73 192.33 165.73 192.33 207.19"/><text transform="translate(70.338 21.31)" style="font-family:'Asap-Regular';font-size:6px">Julia’s endowment</text><text transform="rotate(-90 79.668 49.016)" style="font-family:'Asap-Medium';font-size:8px">Consumption later ($)</text><text transform="translate(121.687 231.53)" style="font-family:'Asap-Medium';font-size:8px">Consumption now ($)</text><circle cx="229.33" cy="207.19" r="1.13"/><circle cx="192.33" cy="165.73" r="1.13"/><circle cx="65.84" cy="27.73" r="1.13"/></svg>