<svg version="1.1" xmlns="http://www.w3.org/2000/svg" x="0" y="0" viewBox="0 0 311.81 155.91" style="enable-background:new 0 0 311.81 155.91" xml:space="preserve"><line style="fill:none;stroke:#000;stroke-width:.4491;stroke-miterlimit:10" x1="27.69" y1="66.88" x2="228.45" y2="66.88"/><text transform="translate(231.669 69.59)" style="font-family:'Asap-Regular';font-size:6px">Price-setting curve</text><text transform="translate(231.669 9.996)" style="fill:#3a53a4;font-family:'Asap-Regular';font-size:6px">Labour supply</text><line style="fill:none;stroke:#3a53a4;stroke-width:.4491;stroke-miterlimit:10;stroke-dasharray:1.273" x1="228.45" y1="6.78" x2="228.45" y2="137.82"/><line style="fill:none;stroke:#6d6e71;stroke-width:.4672;stroke-linecap:square;stroke-linejoin:round" x1="27.69" y1="66.77" x2="25.56" y2="66.77"/><line style="fill:none;stroke:#888;stroke-width:.4672;stroke-linecap:square;stroke-linejoin:round;stroke-dasharray:1.2728" x1="189.45" y1="137.82" x2="189.56" y2="67.33"/><line style="fill:none;stroke:#6d6e71;stroke-width:.4672;stroke-linecap:square;stroke-linejoin:round" x1="27.69" y1="10" x2="25.56" y2="10"/><line style="fill:none;stroke:#6d6e71;stroke-width:.4672;stroke-linecap:square;stroke-linejoin:round" x1="27.69" y1="138.06" x2="25.56" y2="138.06"/><line style="fill:none;stroke:#6d6e71;stroke-width:.4672;stroke-linecap:square;stroke-linejoin:round" x1="27.58" y1="138.06" x2="27.58" y2="10"/><text transform="rotate(-90 44.894 32.983)" style="font-family:'Asap-Medium';font-size:8px">Real wage</text><line style="fill:none;stroke:#6d6e71;stroke-width:.4672;stroke-linecap:square;stroke-linejoin:round" x1="228.45" y1="138.11" x2="228.45" y2="140.23"/><line style="fill:none;stroke:#6d6e71;stroke-width:.4672;stroke-linecap:square;stroke-linejoin:round" x1="27.58" y1="138.11" x2="27.58" y2="140.23"/><line style="fill:none;stroke:#6d6e71;stroke-width:.4672;stroke-linecap:square;stroke-linejoin:round" x1="27.58" y1="138.06" x2="238.01" y2="138.06"/><text transform="translate(18.282 139.226)" style="font-family:'Asap-Regular';font-size:6px">0</text><text transform="translate(231.669 28.983)" style="fill:#ed2124;font-family:'Asap-Regular';font-size:6px">Average product of labour</text><text transform="translate(42.317 116.997)"><tspan x="0" y="0" style="fill:#b9519e;font-family:'Asap-Regular';font-size:6px">Wage-setting</tspan><tspan x="0" y="7.2" style="fill:#b9519e;font-family:'Asap-Regular';font-size:6px">curve</tspan></text><line style="fill:none;stroke:#ed2124;stroke-width:.4491;stroke-miterlimit:10;stroke-dasharray:1.273" x1="27.81" y1="27.33" x2="228" y2="27.33"/><line style="fill:none;stroke:#6d6e71;stroke-width:.4672;stroke-linecap:square;stroke-linejoin:round" x1="189.45" y1="138.11" x2="189.45" y2="140.23"/><text transform="translate(184.472 61.493)" style="font-family:'Asap-Regular';font-size:6px">X</text><path style="fill:none;stroke:#b9519e;stroke-width:.5;stroke-miterlimit:10" d="M30 129.78s104.46-.25 159.56-62.46c0 0 22.44-23.78 27.44-57.33"/><circle cx="189.56" cy="67.33" r="1.13"/><line style="fill:none;stroke:#6d6e71;stroke-width:.4672;stroke-linecap:square;stroke-linejoin:round" x1="27.69" y1="27.33" x2="25.56" y2="27.33"/><text transform="translate(128.878 151.07)"><tspan x="0" y="0" style="font-family:'Asap-Medium';font-size:8px">Employment, </tspan><tspan x="48.3" y="0" style="font-family:'Asap-MediumItalic';font-size:8px">N</tspan></text></svg>