<svg version="1.1" xmlns="http://www.w3.org/2000/svg" x="0" y="0" viewBox="0 0 311.81 192.42" style="enable-background:new 0 0 311.81 192.42" xml:space="preserve"><path style="fill:none;stroke:#3a53a4;stroke-width:.5;stroke-miterlimit:10" d="M56.84 2.42s6.83 80.83 93.17 94.33c0 0 70.29 12 140.31 13.25"/><polyline style="fill:none;stroke:#939598;stroke-width:.5;stroke-miterlimit:10;stroke-dasharray:1.4173" points="33.28 96.75 145.17 96.75 145.17 150"/><polyline style="fill:none;stroke:#939598;stroke-width:.5;stroke-miterlimit:10;stroke-dasharray:1.4173" points="33.02 111.42 205.95 111.42 205.95 150"/><line style="fill:none;stroke:#3a53a4;stroke-width:.5;stroke-miterlimit:10" x1="33.28" y1="118.92" x2="290.32" y2="118.92"/><path style="fill:none;stroke:#273a71;stroke-width:.5;stroke-miterlimit:10" d="M113.67 72.92s19 26.9 63.67 33.78"/><line style="fill:none;stroke:#6d6e71;stroke-width:.5202;stroke-linecap:square;stroke-linejoin:round" x1="33" y1="2.42" x2="30.87" y2="2.42"/><line style="fill:none;stroke:#6d6e71;stroke-width:.5202;stroke-linecap:square;stroke-linejoin:round" x1="33" y1="150" x2="30.87" y2="150"/><line style="fill:none;stroke:#6d6e71;stroke-width:.5202;stroke-linecap:square;stroke-linejoin:round" x1="33.02" y1="150" x2="33.02" y2="2.42"/><text transform="rotate(-90 52.004 42.085)"><tspan x="0" y="0" style="font-family:'Asap-Medium';font-size:8px">Price, </tspan><tspan x="21.3" y="0" style="font-family:'Asap-MediumItalic';font-size:8px">p</tspan><tspan x="25.89" y="0" style="font-family:'Asap-Medium';font-size:8px"> ($)</tspan></text><line style="fill:none;stroke:#6d6e71;stroke-width:.5202;stroke-linecap:square;stroke-linejoin:round" x1="290.32" y1="150.03" x2="290.32" y2="152.15"/><line style="fill:none;stroke:#6d6e71;stroke-width:.5202;stroke-linecap:square;stroke-linejoin:round" x1="33.02" y1="150.03" x2="33.02" y2="152.15"/><line style="fill:none;stroke:#6d6e71;stroke-width:.5202;stroke-linecap:square;stroke-linejoin:round" x1="33.02" y1="150" x2="290.32" y2="150"/><text transform="translate(69.342 181.834)"><tspan x="0" y="0" style="font-family:'Asap-Medium';font-size:8px">Units of output, </tspan><tspan x="56.33" y="0" style="font-family:'Asap-MediumItalic';font-size:8px">q</tspan><tspan x="60.86" y="0" style="font-family:'Asap-Medium';font-size:8px"> (and hours of labour, </tspan><tspan x="137.92" y="0" style="font-family:'Asap-MediumItalic';font-size:8px">n</tspan><tspan x="142.37" y="0" style="font-family:'Asap-Medium';font-size:8px">)</tspan></text><text transform="translate(21.338 120.916)" style="font-family:'Asap-Italic';font-size:7px">W</text><text transform="translate(21.338 131.583)" style="font-family:'Asap-Italic';font-size:7px">W</text><text transform="matrix(.583 0 0 .583 27.512 133.914)" style="font-family:'Asap-Regular';font-size:7px">L</text><text transform="translate(21.338 98.916)"><tspan x="0" y="0" style="font-family:'Asap-Italic';font-size:7px">p</tspan><tspan x="4.01" y="0" style="font-family:'Asap-Regular';font-size:7px">*</tspan></text><text transform="translate(21.338 111.166)"><tspan x="0" y="0" style="font-family:'Asap-Italic';font-size:7px">p</tspan><tspan x="4.01" y="0" style="font-family:'Asap-Regular';font-size:7px">**</tspan></text><text transform="translate(143.005 161.25)"><tspan x="0" y="0" style="font-family:'Asap-Italic';font-size:7px">q</tspan><tspan x="3.96" y="0" style="font-family:'Asap-Regular';font-size:7px">*</tspan></text><text transform="translate(202.505 161.25)"><tspan x="0" y="0" style="font-family:'Asap-Italic';font-size:7px">q</tspan><tspan x="3.96" y="0" style="font-family:'Asap-Regular';font-size:7px">**</tspan></text><text transform="translate(72.005 25.25)"><tspan x="0" y="0" style="font-family:'Asap-Regular';font-size:6px">Isoprofit curve</tspan><tspan x="0" y="7.2" style="font-family:'Asap-Regular';font-size:6px">(initial wage)</tspan></text><text transform="translate(143.005 93.25)" style="font-family:'Asap-Regular';font-size:6px">B</text><line style="fill:none;stroke:#ed2124;stroke-width:.5;stroke-miterlimit:10" x1="33.28" y1="69.87" x2="278.34" y2="128.87"/><text transform="translate(210.755 111.25)" style="font-family:'Asap-Regular';font-size:6px">X</text><line style="fill:none;stroke:#273a71;stroke-width:.5;stroke-miterlimit:10" x1="33.15" y1="131.58" x2="290.19" y2="131.58"/><circle cx="145.17" cy="96.75" r="1.13"/><circle cx="206.34" cy="111.42" r="1.13"/><text transform="translate(37.838 93.166)" style="font-family:'Asap-Regular';font-size:6px">Price</text><text transform="translate(37.838 106.166)" style="font-family:'Asap-Regular';font-size:6px">Lower price</text><text transform="translate(37.838 127.166)" style="fill:#3a53a4;font-family:'Asap-Regular';font-size:6px">Wage</text><text transform="translate(37.838 140.416)" style="fill:#273a71;font-family:'Asap-Regular';font-size:6px">Lower wage</text><line style="fill:none;stroke:#939598;stroke-width:.5;stroke-miterlimit:10" x1="90" y1="37.58" x2="90" y2="60.37"/><polygon style="fill:#939598" points="87.96 58.72 88.33 58.38 90 60.18 91.68 58.38 92.05 58.72 90 60.92"/><text transform="translate(213.338 128.583)" style="fill:#ed2124;font-family:'Asap-Regular';font-size:6px">Demand curve</text><line style="fill:none;stroke:#6d6e71;stroke-width:.5202;stroke-linecap:square;stroke-linejoin:round" x1="290.32" y1="150.03" x2="290.32" y2="152.15"/><line style="fill:none;stroke:#6d6e71;stroke-width:.5202;stroke-linecap:square;stroke-linejoin:round" x1="205.95" y1="150.03" x2="205.95" y2="152.15"/><line style="fill:none;stroke:#6d6e71;stroke-width:.5202;stroke-linecap:square;stroke-linejoin:round" x1="145.17" y1="150.03" x2="145.17" y2="152.15"/><line style="fill:none;stroke:#6d6e71;stroke-width:.5202;stroke-linecap:square;stroke-linejoin:round" x1="33" y1="131.58" x2="30.87" y2="131.58"/><line style="fill:none;stroke:#6d6e71;stroke-width:.5202;stroke-linecap:square;stroke-linejoin:round" x1="33" y1="118.92" x2="30.87" y2="118.92"/><line style="fill:none;stroke:#6d6e71;stroke-width:.5202;stroke-linecap:square;stroke-linejoin:round" x1="33" y1="111.42" x2="30.87" y2="111.42"/><line style="fill:none;stroke:#6d6e71;stroke-width:.5202;stroke-linecap:square;stroke-linejoin:round" x1="33" y1="96.75" x2="30.87" y2="96.75"/><text transform="translate(139.754 51.75)"><tspan x="0" y="0" style="font-family:'Asap-Regular';font-size:6px">Isoprofit curve</tspan><tspan x="0" y="7.2" style="font-family:'Asap-Regular';font-size:6px">(lower wage)</tspan></text><g><line style="fill:none;stroke:#939598;stroke-width:.5;stroke-miterlimit:10" x1="146.71" y1="63" x2="139.49" y2="82.32"/><polygon style="fill:#939598" points="138.15 80.06 138.61 79.87 139.55 82.15 141.76 81.04 141.98 81.49 139.3 82.83"/></g></svg>