<svg version="1.1" xmlns="http://www.w3.org/2000/svg" x="0" y="0" viewBox="0 0 311.81 178.11" style="enable-background:new 0 0 311.81 178.11" xml:space="preserve"><line style="fill:none;stroke:#000;stroke-width:.5;stroke-miterlimit:10" x1="38.66" y1="81.96" x2="266.34" y2="81.96"/><line style="fill:none;stroke:#3a53a4;stroke-width:.5;stroke-miterlimit:10;stroke-dasharray:1.4173" x1="186.67" y1="21.92" x2="186.67" y2="143.28"/><text transform="translate(271.005 81.281)"><tspan x="0" y="0" style="font-family:'Asap-Regular';font-size:6px">Price-setting</tspan><tspan x="0" y="7.2" style="font-family:'Asap-Regular';font-size:6px">curve</tspan></text><text transform="translate(153.208 8.948)"><tspan x="0" y="0" style="fill:#3a53a4;font-family:'Asap-Regular';font-size:6px">Labour force</tspan><tspan x="0" y="7.2" style="fill:#3a53a4;font-family:'Asap-Regular';font-size:6px">(before immigration)</tspan></text><path style="fill:none;stroke:#b9519e;stroke-width:.5;stroke-miterlimit:10" d="M86.31 91.49s52.67-7.57 77.33-68.9"/><line style="fill:none;stroke:#6d6e71;stroke-width:.5;stroke-linecap:square;stroke-linejoin:round" x1="38.66" y1="145.42" x2="36.54" y2="145.42"/><line style="fill:none;stroke:#6d6e71;stroke-width:.5;stroke-linecap:square;stroke-linejoin:round" x1="38.53" y1="145.42" x2="38.53" y2="19.96"/><line style="fill:none;stroke:#6d6e71;stroke-width:.5;stroke-linecap:square;stroke-linejoin:round" x1="38.53" y1="145.76" x2="38.53" y2="147.88"/><line style="fill:none;stroke:#6d6e71;stroke-width:.5;stroke-linecap:square;stroke-linejoin:round" x1="38.53" y1="145.42" x2="263.85" y2="145.42"/><text transform="translate(28.492 146.923)" style="font-family:'Asap-Regular';font-size:7px">0</text><text transform="translate(23.491 21.923)" style="font-family:'Asap-Regular';font-size:7px">40</text><text transform="translate(23.491 84)" style="font-family:'Asap-Regular';font-size:7px">20</text><text transform="translate(36.23 158.322)" style="font-family:'Asap-Regular';font-size:7px">3</text><text transform="translate(184.59 158.322)" style="font-family:'Asap-Regular';font-size:7px">5</text><text transform="translate(110.023 158.322)" style="font-family:'Asap-Regular';font-size:7px">4</text><text transform="translate(105.423 78.488)" style="font-family:'Asap-Regular';font-size:6px">A</text><text transform="translate(261.362 158.322)" style="font-family:'Asap-Regular';font-size:7px">6</text><line style="fill:none;stroke:#6d6e71;stroke-width:.5;stroke-linecap:square;stroke-linejoin:round" x1="263.85" y1="145.76" x2="263.85" y2="147.88"/><line style="fill:none;stroke:#6d6e71;stroke-width:.5;stroke-linecap:square;stroke-linejoin:round" x1="38.66" y1="19.96" x2="36.54" y2="19.96"/><circle cx="111.67" cy="81.96" r="1.13"/><line style="fill:none;stroke:#6d6e71;stroke-width:.5;stroke-linecap:square;stroke-linejoin:round" x1="38.66" y1="81.96" x2="36.54" y2="81.96"/><line style="fill:none;stroke:#6d6e71;stroke-width:.5;stroke-linecap:square;stroke-linejoin:round" x1="186.67" y1="145.76" x2="186.67" y2="147.88"/><line style="fill:none;stroke:#6d6e71;stroke-width:.5;stroke-linecap:square;stroke-linejoin:round" x1="111.67" y1="145.76" x2="111.67" y2="147.88"/><polyline style="fill:none;stroke:#939598;stroke-width:.5;stroke-miterlimit:10;stroke-dasharray:1.4173" points="111.67 143.28 111.67 104.96 111.67 83.37"/><line style="fill:none;stroke:#939598;stroke-width:.5;stroke-miterlimit:10" x1="109.42" y1="60.95" x2="130.38" y2="60.95"/><polygon style="fill:#939598" points="128.72 62.99 128.38 62.63 130.19 60.95 128.38 59.27 128.72 58.9 130.92 60.95"/><text transform="translate(50.707 57.037)"><tspan x="0" y="0" style="fill:#b9519e;font-family:'Asap-Regular';font-size:6px">Wage-setting curve</tspan><tspan x="0" y="7.2" style="fill:#b9519e;font-family:'Asap-Regular';font-size:6px">(before immigration)</tspan></text><text transform="translate(88.474 173.321)" style="font-family:'Asap-Medium';font-size:8px">Employment (millions of workers)</text><text transform="rotate(-90 59.817 43.208)" style="font-family:'Asap-Medium';font-size:8px">Real wage ($)</text></svg>