<svg version="1.1" xmlns="http://www.w3.org/2000/svg" x="0" y="0" viewBox="0 0 311.81 178.11" style="enable-background:new 0 0 311.81 178.11" xml:space="preserve"><line style="fill:none;stroke:#000;stroke-width:.5;stroke-miterlimit:10" x1="38.66" y1="81.96" x2="266.34" y2="81.96"/><line style="fill:none;stroke:#3a53a4;stroke-width:.5;stroke-miterlimit:10;stroke-dasharray:1.4173" x1="186.67" y1="21.92" x2="186.67" y2="143.28"/><line style="fill:none;stroke:#1e2856;stroke-width:.5;stroke-miterlimit:10;stroke-dasharray:1.4173" x1="225.67" y1="21.92" x2="225.67" y2="143.28"/><text transform="translate(271.005 81.281)"><tspan x="0" y="0" style="font-family:'Asap-Regular';font-size:6px">Price-setting</tspan><tspan x="0" y="7.2" style="font-family:'Asap-Regular';font-size:6px">curve</tspan></text><text transform="translate(218.506 8.948)"><tspan x="0" y="0" style="fill:#1e2856;font-family:'Asap-Regular';font-size:6px">Labour force</tspan><tspan x="0" y="7.2" style="fill:#1e2856;font-family:'Asap-Regular';font-size:6px">(after immigration)</tspan></text><text transform="translate(153.208 8.948)"><tspan x="0" y="0" style="fill:#3a53a4;font-family:'Asap-Regular';font-size:6px">Labour force</tspan><tspan x="0" y="7.2" style="fill:#3a53a4;font-family:'Asap-Regular';font-size:6px">(before immigration)</tspan></text><path style="fill:none;stroke:#6d245a;stroke-width:.5;stroke-miterlimit:10" d="M102.34 107.52s52.67-7.57 77.33-68.9"/><path style="fill:none;stroke:#b9519e;stroke-width:.5;stroke-miterlimit:10" d="M86.31 91.49s52.67-7.57 77.33-68.9"/><line style="fill:none;stroke:#6d6e71;stroke-width:.5;stroke-linecap:square;stroke-linejoin:round" x1="38.66" y1="145.42" x2="36.54" y2="145.42"/><line style="fill:none;stroke:#6d6e71;stroke-width:.5;stroke-linecap:square;stroke-linejoin:round" x1="38.53" y1="145.42" x2="38.53" y2="19.96"/><line style="fill:none;stroke:#6d6e71;stroke-width:.5;stroke-linecap:square;stroke-linejoin:round" x1="38.53" y1="145.76" x2="38.53" y2="147.88"/><line style="fill:none;stroke:#6d6e71;stroke-width:.5;stroke-linecap:square;stroke-linejoin:round" x1="38.53" y1="145.42" x2="263.85" y2="145.42"/><text transform="translate(28.492 146.923)" style="font-family:'Asap-Regular';font-size:7px">0</text><text transform="translate(23.491 84)" style="font-family:'Asap-Regular';font-size:7px">20</text><text transform="translate(36.23 158.322)" style="font-family:'Asap-Regular';font-size:7px">3</text><text transform="translate(220.923 158.322)" style="font-family:'Asap-Regular';font-size:7px">5.5</text><text transform="translate(184.59 158.322)" style="font-family:'Asap-Regular';font-size:7px">5</text><text transform="translate(110.023 158.322)" style="font-family:'Asap-Regular';font-size:7px">4</text><text transform="translate(105.423 78.488)" style="font-family:'Asap-Regular';font-size:6px">A</text><text transform="translate(261.362 158.322)" style="font-family:'Asap-Regular';font-size:7px">6</text><line style="fill:none;stroke:#6d6e71;stroke-width:.5;stroke-linecap:square;stroke-linejoin:round" x1="225.67" y1="145.76" x2="225.67" y2="147.88"/><line style="fill:none;stroke:#6d6e71;stroke-width:.5;stroke-linecap:square;stroke-linejoin:round" x1="263.85" y1="145.76" x2="263.85" y2="147.88"/><line style="fill:none;stroke:#6d6e71;stroke-width:.5;stroke-linecap:square;stroke-linejoin:round" x1="38.66" y1="19.96" x2="36.54" y2="19.96"/><circle cx="111.67" cy="81.96" r="1.13"/><line style="fill:none;stroke:#6d6e71;stroke-width:.5;stroke-linecap:square;stroke-linejoin:round" x1="38.66" y1="81.96" x2="36.54" y2="81.96"/><line style="fill:none;stroke:#6d6e71;stroke-width:.5;stroke-linecap:square;stroke-linejoin:round" x1="186.67" y1="145.76" x2="186.67" y2="147.88"/><line style="fill:none;stroke:#6d6e71;stroke-width:.5;stroke-linecap:square;stroke-linejoin:round" x1="111.67" y1="145.76" x2="111.67" y2="147.88"/><polyline style="fill:none;stroke:#939598;stroke-width:.5;stroke-miterlimit:10;stroke-dasharray:1.4173" points="111.67 143.28 111.67 104.96 111.67 83.37"/><text transform="translate(157.423 111.488)" style="font-family:'Asap-Italic';font-size:6px">U</text><text transform="translate(194.09 126.155)"><tspan x="0" y="0" style="font-family:'Asap-Italic';font-size:6px">U</tspan><tspan x="4.27" y="0" style="font-family:'SourceSansPro-Regular';font-size:6px">′</tspan></text><line style="fill:none;stroke:#939598;stroke-width:.5;stroke-miterlimit:10" x1="113.63" y1="114.95" x2="184.05" y2="114.95"/><polygon style="fill:#939598" points="115.29 116.99 115.63 116.63 113.82 114.95 115.63 113.27 115.29 112.9 113.09 114.95"/><polygon style="fill:#939598" points="182.39 116.99 182.05 116.63 183.86 114.95 182.05 113.27 182.39 112.9 184.59 114.95"/><line style="fill:none;stroke:#939598;stroke-width:.5;stroke-miterlimit:10" x1="109.42" y1="60.95" x2="130.38" y2="60.95"/><polygon style="fill:#939598" points="128.72 62.99 128.38 62.63 130.19 60.95 128.38 59.27 128.72 58.9 130.92 60.95"/><line style="fill:none;stroke:#939598;stroke-width:.5;stroke-miterlimit:10" x1="109.42" y1="43.61" x2="170.38" y2="43.61"/><polygon style="fill:#939598" points="168.72 45.66 168.38 45.29 170.19 43.61 168.38 41.94 168.72 41.57 170.92 43.61"/><line style="fill:none;stroke:#939598;stroke-width:.5;stroke-miterlimit:10" x1="113.63" y1="128.28" x2="221.05" y2="128.28"/><polygon style="fill:#939598" points="115.29 130.33 115.63 129.96 113.82 128.28 115.63 126.6 115.29 126.24 113.09 128.28"/><polygon style="fill:#939598" points="219.39 130.33 219.05 129.96 220.86 128.28 219.05 126.6 219.39 126.24 221.59 128.28"/><text transform="translate(50.707 57.037)"><tspan x="0" y="0" style="fill:#b9519e;font-family:'Asap-Regular';font-size:6px">Wage-setting curve</tspan><tspan x="0" y="7.2" style="fill:#b9519e;font-family:'Asap-Regular';font-size:6px">(before immigration)</tspan></text><text transform="translate(50.707 37.37)"><tspan x="0" y="0" style="fill:#6d245a;font-family:'Asap-Regular';font-size:6px">Wage-setting curve</tspan><tspan x="0" y="7.2" style="fill:#6d245a;font-family:'Asap-Regular';font-size:6px">(after immigration)</tspan></text><text transform="translate(88.474 173.321)" style="font-family:'Asap-Medium';font-size:8px">Employment (millions of workers)</text><text transform="rotate(-90 59.817 43.208)" style="font-family:'Asap-Medium';font-size:8px">Real wage ($)</text><text transform="translate(23.491 21.923)" style="font-family:'Asap-Regular';font-size:7px">40</text></svg>