<svg version="1.1" xmlns="http://www.w3.org/2000/svg" x="0" y="0" viewBox="0 0 311.81 134.11" style="enable-background:new 0 0 311.81 134.11" xml:space="preserve"><polygon style="fill:#cccfe8" points="291.7 18.28 291.55 18.69 222.78 87.39 226.94 87.25 227.24 86.98 230.11 86.89 285.41 47.41 291.57 18.89 291.7 18.54 291.63 18.61"/><polyline style="fill:none;stroke:#939598;stroke-width:.5;stroke-linecap:square;stroke-linejoin:round;stroke-dasharray:1.4766" points="224.2 47.42 285.41 47.42 285.41 88.42"/><line style="fill:none;stroke:#888;stroke-width:.5;stroke-linecap:square;stroke-linejoin:round;stroke-dasharray:1.4766" x1="291.7" y1="19.14" x2="223.02" y2="19.14"/><line style="fill:none;stroke:#6d6e71;stroke-width:.5;stroke-linecap:square;stroke-linejoin:round" x1="223.12" y1="87.13" x2="220.99" y2="87.13"/><line style="fill:none;stroke:#6d6e71;stroke-width:.5;stroke-linecap:square;stroke-linejoin:round" x1="222.78" y1="87.13" x2="222.78" y2="19.14"/><line style="fill:none;stroke:#6d6e71;stroke-width:.5;stroke-linecap:square;stroke-linejoin:round" x1="222.78" y1="87.17" x2="222.78" y2="89.3"/><line style="fill:none;stroke:#6d6e71;stroke-width:.5;stroke-linecap:square;stroke-linejoin:round" x1="222.78" y1="87.13" x2="291.7" y2="87.13"/><text transform="translate(215.307 90.227)" style="font-family:'Asap-Regular';font-size:7.2929px">0</text><text transform="translate(211.4 49.47)" style="font-family:'Asap-Regular';font-size:7.2929px">60</text><text transform="translate(207.234 21.256)" style="font-family:'Asap-Regular';font-size:7.2929px">100</text><text transform="translate(221.207 96.127)" style="font-family:'Asap-Regular';font-size:7.2929px">0</text><text transform="translate(226.937 96.127)" style="font-family:'Asap-Regular';font-size:7.2929px">10</text><text transform="translate(195.805 106.545)" style="font-family:'Asap-Regular';font-size:6.251px">Unemployed</text><text transform="translate(247.134 106.545)" style="font-family:'Asap-Regular';font-size:6.251px">Employed</text><text transform="translate(288.287 106.545)" style="font-family:'Asap-Regular';font-size:6.251px">Owners</text><text transform="translate(280.848 96.127)" style="font-family:'Asap-Regular';font-size:7.2929px">90</text><text transform="translate(290.094 96.127)" style="font-family:'Asap-Regular';font-size:7.2929px">100</text><text transform="translate(222.289 7.327)" style="font-family:'Asap-Regular';font-size:6.251px">Gini coefficient: 0.36</text><line style="fill:none;stroke:#6d6e71;stroke-width:.5;stroke-linecap:square;stroke-linejoin:round" x1="230.11" y1="87.17" x2="230.11" y2="89.3"/><line style="fill:none;stroke:#6d6e71;stroke-width:.5;stroke-linecap:square;stroke-linejoin:round" x1="285.41" y1="87.17" x2="285.41" y2="89.3"/><line style="fill:none;stroke:#6d6e71;stroke-width:.5;stroke-linecap:square;stroke-linejoin:round" x1="291.7" y1="87.17" x2="291.7" y2="89.3"/><line style="fill:none;stroke:#6d6e71;stroke-width:.5;stroke-linecap:square;stroke-linejoin:round" x1="223.12" y1="47.42" x2="220.99" y2="47.42"/><line style="fill:none;stroke:#6d6e71;stroke-width:.5;stroke-linecap:square;stroke-linejoin:round" x1="223.12" y1="19.14" x2="220.99" y2="19.14"/><polyline style="fill:none;stroke:#939598;stroke-width:.5;stroke-miterlimit:10" points="223.02 97.67 223.02 100.01 229.11 100.01 229.11 97.67"/><polyline style="fill:none;stroke:#939598;stroke-width:.5;stroke-miterlimit:10" points="285.41 97.67 285.41 100.01 291.7 100.01 291.7 97.67"/><polyline style="fill:none;stroke:#939598;stroke-width:.5;stroke-miterlimit:10" points="230.11 97.67 230.11 100.01 284.41 100.01 284.41 97.67"/><text transform="translate(179.55 120.812)"><tspan x="0" y="0" style="font-family:'Asap-Medium';font-size:8.3347px">Cumulative share of the population</tspan><tspan x="2.66" y="10" style="font-family:'Asap-Medium';font-size:8.3347px">from lowest to highest income (%)</tspan></text><text transform="rotate(-90 131.206 -47.593)"><tspan x="0" y="0" style="font-family:'Asap-Medium';font-size:8.3347px">Cumulative share</tspan><tspan x="7.16" y="10" style="font-family:'Asap-Medium';font-size:8.3347px">of income (%)</tspan></text><line style="fill:none;stroke:#939598;stroke-width:.5;stroke-linecap:square;stroke-linejoin:round;stroke-dasharray:1.4766" x1="291.7" y1="19.14" x2="291.7" y2="86.78"/><line style="fill:none;stroke:#000;stroke-width:.5;stroke-linecap:square;stroke-linejoin:round" x1="222.78" y1="87.13" x2="291.7" y2="19.14"/><polyline style="fill:none;stroke:#1e2856;stroke-width:.5;stroke-linecap:square;stroke-linejoin:round" points="222.78 87.13 230.11 86.89 285.41 47.42 291.7 19.14"/><line style="fill:none;stroke:#6d6e71;stroke-width:.5;stroke-linecap:square;stroke-linejoin:round" x1="30.7" y1="87.13" x2="28.58" y2="87.13"/><line style="fill:none;stroke:#6d6e71;stroke-width:.5;stroke-linecap:square;stroke-linejoin:round" x1="30.65" y1="87.13" x2="30.65" y2="19.14"/><line style="fill:none;stroke:#6d6e71;stroke-width:.5;stroke-linecap:square;stroke-linejoin:round" x1="30.65" y1="87.17" x2="30.65" y2="89.3"/><line style="fill:none;stroke:#6d6e71;stroke-width:.5;stroke-linecap:square;stroke-linejoin:round" x1="30.65" y1="87.13" x2="135.28" y2="87.13"/><line style="fill:none;stroke:#6d6e71;stroke-width:.5;stroke-linecap:square;stroke-linejoin:round" x1="112.31" y1="87.17" x2="112.31" y2="89.3"/><line style="fill:none;stroke:#6d6e71;stroke-width:.5;stroke-linecap:square;stroke-linejoin:round" x1="130.66" y1="87.17" x2="130.66" y2="89.3"/><line style="fill:none;stroke:#6d6e71;stroke-width:.5;stroke-linecap:square;stroke-linejoin:round" x1="30.7" y1="48.46" x2="28.58" y2="48.46"/><line style="fill:none;stroke:#6d6e71;stroke-width:.5;stroke-linecap:square;stroke-linejoin:round" x1="30.7" y1="22.33" x2="28.58" y2="22.33"/><text transform="translate(18.087 25.308)" style="font-family:'Asap-Regular';font-size:7.2929px">1.0</text><text transform="translate(18.087 50.511)" style="font-family:'Asap-Regular';font-size:7.2929px">0.6</text><text transform="translate(14.087 40.512)" style="font-family:'Asap-Regular';font-size:7.2929px">0.76</text><text transform="translate(23.178 90.227)" style="font-family:'Asap-Regular';font-size:7.2929px">0</text><text transform="translate(30.119 96.127)" style="font-family:'Asap-Regular';font-size:7.2929px">40</text><text transform="translate(104.315 108.545)" style="font-family:'Asap-Regular';font-size:6.251px">Unemployed</text><text transform="translate(110.085 96.127)" style="font-family:'Asap-Regular';font-size:7.2929px">83</text><text transform="translate(100.085 96.127)" style="font-family:'Asap-Regular';font-size:7.2929px">80</text><text transform="translate(126.62 96.127)" style="font-family:'Asap-Regular';font-size:7.2929px">90</text><line style="fill:none;stroke:#939598;stroke-width:.5;stroke-linecap:square;stroke-linejoin:round;stroke-dasharray:1.4766" x1="130.66" y1="85.6" x2="130.66" y2="19.14"/><text transform="translate(112.22 14.327)" style="fill:#939598;font-family:'Asap-Regular';font-size:6px">Labour supply</text><text transform="translate(133.826 23.266)"><tspan x="0" y="0" style="fill:#ed2124;font-family:'Asap-Regular';font-size:4px">Average product</tspan><tspan x="0" y="4.8" style="fill:#ed2124;font-family:'Asap-Regular';font-size:4px">of labour</tspan></text><text transform="translate(106.315 36.223)" style="font-family:'Asap-Regular';font-size:6.251px">B</text><text transform="translate(133.826 67.194)"><tspan x="0" y="0" style="font-family:'Asap-Regular';font-size:4px">Price-setting</tspan><tspan x="0" y="4.8" style="font-family:'Asap-Regular';font-size:4px">curve (wage</tspan><tspan x="0" y="9.6" style="font-family:'Asap-Regular';font-size:4px">share: 0.6)</tspan></text><text transform="translate(133.826 39.924)"><tspan x="0" y="0" style="font-family:'Asap-Regular';font-size:4px">New price-setting</tspan><tspan x="0" y="4.8" style="font-family:'Asap-Regular';font-size:4px">curve (lower</tspan><tspan x="0" y="9.6" style="font-family:'Asap-Regular';font-size:4px">mark-up) wage</tspan><tspan x="0" y="14.4" style="font-family:'Asap-Regular';font-size:4px">share: 0.76)</tspan></text><text transform="translate(52.668 120.545)"><tspan x="0" y="0" style="font-family:'Asap-Medium';font-size:8.3347px">Employment,</tspan><tspan x="48.32" y="0" style="font-family:'Asap-MediumItalic';font-size:8.3347px"> N</tspan></text><text transform="translate(33.81 61.982)"><tspan x="0" y="0" style="fill:#b9519e;font-family:'Asap-Regular';font-size:6.251px">Wage-setting</tspan><tspan x="0" y="7.5" style="fill:#b9519e;font-family:'Asap-Regular';font-size:6.251px">curve</tspan></text><text transform="translate(99.3 47.194)" style="font-family:'Asap-Regular';font-size:6.251px">A</text><line style="fill:none;stroke:#ed2124;stroke-width:.5;stroke-linecap:square;stroke-linejoin:round;stroke-dasharray:1.4766" x1="30.7" y1="22.33" x2="130.66" y2="22.33"/><line style="fill:none;stroke:#000;stroke-width:.5;stroke-linecap:square;stroke-linejoin:round;stroke-dasharray:1.4766" x1="30.7" y1="38.46" x2="130.66" y2="38.45"/><line style="fill:none;stroke:#000;stroke-width:.4679;stroke-miterlimit:10" x1="30.7" y1="48.46" x2="130.66" y2="48.45"/><path style="fill:none;stroke:#b9519e;stroke-width:.5;stroke-linecap:square;stroke-linejoin:round" d="M33.19 75.74s69.48 2.2 86.14-53.41"/><text transform="rotate(-90 39.318 31.318)" style="font-family:'Asap-Medium';font-size:8.3347px">Real wage</text><line style="fill:none;stroke:#6d6e71;stroke-width:.5;stroke-linecap:square;stroke-linejoin:round" x1="30.7" y1="38.46" x2="28.58" y2="38.46"/><line style="fill:none;stroke:#939598;stroke-width:.5;stroke-linecap:square;stroke-linejoin:round;stroke-dasharray:1.4766" x1="112.31" y1="38.45" x2="112.31" y2="85.6"/><line style="fill:none;stroke:#939598;stroke-width:.5;stroke-linecap:square;stroke-linejoin:round;stroke-dasharray:1.4766" x1="104.84" y1="49.04" x2="104.84" y2="85.6"/><line style="fill:none;stroke:#6d6e71;stroke-width:.5;stroke-linecap:square;stroke-linejoin:round" x1="104.84" y1="87.17" x2="104.84" y2="89.3"/><line style="fill:none;stroke:#939598;stroke-width:.5;stroke-linecap:square;stroke-linejoin:round" x1="112.86" y1="100.01" x2="130.12" y2="100.01"/><polygon style="fill:#939598" points="114.51 102.05 114.85 101.69 113.05 100.01 114.85 98.33 114.51 97.97 112.31 100.01"/><polygon style="fill:#939598" points="128.46 102.05 128.12 101.69 129.93 100.01 128.12 98.33 128.46 97.97 130.66 100.01"/><polyline style="fill:none;stroke:#939598;stroke-width:.5;stroke-linecap:square;stroke-linejoin:round" points="132.34 65.86 121.49 65.86 121.49 51.98"/><polygon style="fill:#939598" points="123.53 53.63 123.17 53.97 121.49 52.17 119.81 53.97 119.44 53.63 121.49 51.43"/><circle cx="104.84" cy="48.45" r="1.13"/><circle cx="112.31" cy="38.45" r="1.13"/></svg>