<svg version="1.1" xmlns="http://www.w3.org/2000/svg" x="0" y="0" viewBox="0 0 311.81 204.61" style="enable-background:new 0 0 311.81 204.61" xml:space="preserve"><path style="fill:none;stroke:#ed2124;stroke-width:.5;stroke-linecap:square;stroke-linejoin:round" d="M92.67 150.91S94.34 36.29 243 22.29"/><line style="fill:none;stroke:#3a53a4;stroke-width:.5;stroke-linecap:square;stroke-linejoin:round" x1="47.34" y1="140.61" x2="185.84" y2="19.11"/><line style="fill:none;stroke:#1e2856;stroke-width:.5;stroke-linecap:square;stroke-linejoin:round" x1="47.34" y1="146.61" x2="217.84" y2="19.11"/><line style="fill:none;stroke:#6d6e71;stroke-width:.5;stroke-linecap:square;stroke-linejoin:round" x1="37.38" y1="151.42" x2="35.25" y2="151.42"/><line style="fill:none;stroke:#6d6e71;stroke-width:.5;stroke-linecap:square;stroke-linejoin:round" x1="37.53" y1="151.42" x2="37.53" y2="9.96"/><line style="fill:none;stroke:#6d6e71;stroke-width:.5;stroke-linecap:square;stroke-linejoin:round" x1="37.53" y1="151.47" x2="37.53" y2="153.6"/><line style="fill:none;stroke:#6d6e71;stroke-width:.5;stroke-linecap:square;stroke-linejoin:round" x1="37.53" y1="151.42" x2="249.85" y2="151.42"/><text transform="translate(27.492 152.923)" style="font-family:'Asap-Regular';font-size:7px">0</text><text transform="translate(22.491 68)" style="font-family:'Asap-Regular';font-size:7px">0.6</text><text transform="translate(18.741 31.334)" style="font-family:'Asap-Regular';font-size:7px">0.85</text><text transform="translate(27.741 12.084)" style="font-family:'Asap-Regular';font-size:7px">1</text><text transform="translate(35.23 164.321)" style="font-family:'Asap-Regular';font-size:7px">0</text><text transform="translate(189.466 164.321)"><tspan x="0" y="0" style="font-family:'Asap-Regular';font-size:7px">Union sets</tspan><tspan x="1.9" y="8.4" style="font-family:'Asap-Regular';font-size:7px">the wage</tspan></text><text transform="translate(72.718 164.321)"><tspan x="0" y="0" style="font-family:'Asap-Regular';font-size:7px">Reservation</tspan><tspan x="9.99" y="8.4" style="font-family:'Asap-Regular';font-size:7px">wage</tspan></text><text transform="translate(114.914 164.321)"><tspan x="0" y="0" style="font-family:'Asap-Regular';font-size:7px">Employer’s profit-</tspan><tspan x=".3" y="8.4" style="font-family:'Asap-Regular';font-size:7px">maximizing wage</tspan><tspan x="11.7" y="16.8" style="font-family:'Asap-Regular';font-size:7px">(no union)</tspan></text><text transform="translate(125.423 63.488)" style="font-family:'Asap-Regular';font-size:6px">A</text><line style="fill:none;stroke:#6d6e71;stroke-width:.5;stroke-linecap:square;stroke-linejoin:round" x1="249.85" y1="151.47" x2="249.85" y2="153.6"/><line style="fill:none;stroke:#6d6e71;stroke-width:.5;stroke-linecap:square;stroke-linejoin:round" x1="37.38" y1="9.96" x2="35.25" y2="9.96"/><text transform="rotate(-90 58.817 49.208)" style="font-family:'Asap-Medium';font-size:8px">Effort per hour</text><line style="fill:none;stroke:#6d6e71;stroke-width:.5;stroke-linecap:square;stroke-linejoin:round" x1="37.38" y1="66.96" x2="35.25" y2="66.96"/><line style="fill:none;stroke:#6d6e71;stroke-width:.5;stroke-linecap:square;stroke-linejoin:round" x1="204.67" y1="151.47" x2="204.67" y2="153.6"/><line style="fill:none;stroke:#6d6e71;stroke-width:.5;stroke-linecap:square;stroke-linejoin:round" x1="92.67" y1="151.47" x2="92.67" y2="153.6"/><line style="fill:none;stroke:#939598;stroke-width:.5;stroke-miterlimit:10" x1="213.24" y1="63.49" x2="189.73" y2="46"/><polygon style="fill:#939598" points="192.28 45.35 192.33 45.85 189.88 46.12 190.33 48.54 189.84 48.63 189.29 45.68"/><text transform="translate(134.208 8.948)"><tspan x="0" y="0" style="fill:#3a53a4;font-family:'Asap-Regular';font-size:6px">Isocost line for</tspan><tspan x="0" y="7.2" style="fill:#3a53a4;font-family:'Asap-Regular';font-size:6px">effort (no union)</tspan></text><text transform="translate(218.622 67.348)"><tspan x="0" y="0" style="fill:#1e2856;font-family:'Asap-Regular';font-size:6px">Isocost line for effort</tspan><tspan x="8.98" y="7.2" style="fill:#1e2856;font-family:'Asap-Regular';font-size:6px">(lower profits)</tspan></text><text transform="translate(248.657 24.448)" style="fill:#ed2124;font-family:'Asap-Regular';font-size:6px">Best response function</text><line style="fill:none;stroke:#6d6e71;stroke-width:.5;stroke-linecap:square;stroke-linejoin:round" x1="37.38" y1="28.96" x2="35.25" y2="28.96"/><line style="fill:none;stroke:#6d6e71;stroke-width:.5;stroke-linecap:square;stroke-linejoin:round" x1="131.67" y1="151.47" x2="131.67" y2="153.6"/><polyline style="fill:none;stroke:#939598;stroke-width:.5;stroke-miterlimit:10;stroke-dasharray:1.4173" points="131.67 151.47 131.67 66.96 37.38 66.96"/><line style="fill:none;stroke:#939598;stroke-width:.5;stroke-miterlimit:10;stroke-dasharray:1.4173" x1="204.67" y1="151.47" x2="204.67" y2="31.33"/><line style="fill:none;stroke:#939598;stroke-width:.5;stroke-miterlimit:10;stroke-dasharray:1.4173" x1="204.67" y1="28.96" x2="37.38" y2="28.96"/><text transform="translate(209.423 34.488)" style="font-family:'Asap-Regular';font-size:6px">C</text><text transform="translate(119.033 197.321)" style="font-family:'Asap-Medium';font-size:8px">Hourly wage ($)</text><circle cx="131.67" cy="66.96" r="1.13"/><circle cx="204.67" cy="28.96" r="1.13"/></svg>