<svg version="1.1" xmlns="http://www.w3.org/2000/svg" x="0" y="0" viewBox="0 0 311.81 157.48" style="enable-background:new 0 0 311.81 157.48" xml:space="preserve"><path style="fill:none;stroke:#b9519e;stroke-width:.5;stroke-miterlimit:10" d="M88 78.64s62.67-10 94.67-65"/><path style="fill:none;stroke:#6d245a;stroke-width:.5;stroke-miterlimit:10" d="M100.66 91.51s67.68-15.48 97.01-77.86"/><line style="fill:none;stroke:#000;stroke-width:.5;stroke-linecap:square;stroke-linejoin:round" x1="231.67" y1="60.96" x2="33.04" y2="60.96"/><line style="fill:none;stroke:#6d6e71;stroke-width:.5;stroke-linecap:square;stroke-linejoin:round" x1="32.38" y1="125.42" x2="30.25" y2="125.42"/><line style="fill:none;stroke:#6d6e71;stroke-width:.5;stroke-linecap:square;stroke-linejoin:round" x1="32.53" y1="125.42" x2="32.53" y2="9.96"/><line style="fill:none;stroke:#6d6e71;stroke-width:.5;stroke-linecap:square;stroke-linejoin:round" x1="32.53" y1="125.19" x2="32.53" y2="127.32"/><line style="fill:none;stroke:#6d6e71;stroke-width:.5;stroke-linecap:square;stroke-linejoin:round" x1="32.53" y1="125.42" x2="231.67" y2="125.42"/><text transform="translate(126.615 138.222)" style="font-family:'Asap-Italic';font-size:7px">N</text><text transform="matrix(.583 0 0 .583 131.649 135.891)" style="font-family:'Asap-Regular';font-size:7px">UNION</text><text transform="translate(157.06 138.222)" style="font-family:'Asap-Italic';font-size:7px">N</text><text transform="matrix(.583 0 0 .583 162.094 135.891)" style="font-family:'Asap-Regular';font-size:7px">*</text><text transform="translate(154.173 56.238)" style="font-family:'Asap-Regular';font-size:6px">A</text><line style="fill:none;stroke:#6d6e71;stroke-width:.5;stroke-linecap:square;stroke-linejoin:round" x1="231.67" y1="125.19" x2="231.67" y2="127.32"/><line style="fill:none;stroke:#6d6e71;stroke-width:.5;stroke-linecap:square;stroke-linejoin:round" x1="32.38" y1="9.96" x2="30.25" y2="9.96"/><text transform="translate(105.726 152.976)"><tspan x="0" y="0" style="font-family:'Asap-Medium';font-size:8px">Employment, </tspan><tspan x="48.3" y="0" style="font-family:'Asap-MediumItalic';font-size:8px">N</tspan></text><text transform="rotate(-90 46.317 29.708)" style="font-family:'Asap-Medium';font-size:8px">Real wage</text><circle cx="159.67" cy="60.96" r="1.13"/><line style="fill:none;stroke:#6d6e71;stroke-width:.5;stroke-linecap:square;stroke-linejoin:round" x1="32.38" y1="60.96" x2="30.25" y2="60.96"/><line style="fill:none;stroke:#6d6e71;stroke-width:.5;stroke-linecap:square;stroke-linejoin:round" x1="159.67" y1="125.19" x2="159.67" y2="127.32"/><text transform="translate(236.343 62.374)" style="font-family:'Asap-Regular';font-size:6px">Price-setting curve</text><text transform="translate(197.11 10.224)" style="fill:#6d245a;font-family:'Asap-Regular';font-size:6px">Wage-setting curve (no union)</text><text transform="translate(77.953 36.29)"><tspan x="0" y="0" style="fill:#b9519e;font-family:'Asap-Regular';font-size:6px">Bargained wage-setting</tspan><tspan x="-6.78" y="7.2" style="fill:#b9519e;font-family:'Asap-Regular';font-size:6px">curve (union, no voice effect)</tspan></text><text transform="translate(237.339 20.374)" style="fill:#ed2124;font-family:'Asap-Regular';font-size:6px">Average product of labour</text><line style="fill:none;stroke:#6d6e71;stroke-width:.5;stroke-linecap:square;stroke-linejoin:round" x1="134.67" y1="125.19" x2="134.67" y2="127.32"/><line style="fill:none;stroke:#939598;stroke-width:.5;stroke-miterlimit:10;stroke-dasharray:1.4173" x1="134.67" y1="123.28" x2="134.67" y2="60.96"/><line style="fill:none;stroke:#939598;stroke-width:.5;stroke-miterlimit:10;stroke-dasharray:1.4173" x1="159.67" y1="123.28" x2="159.67" y2="60.96"/><line style="fill:none;stroke:#ed2124;stroke-width:.5;stroke-miterlimit:10;stroke-dasharray:1.4173" x1="33.04" y1="19.68" x2="231.67" y2="19.68"/><text transform="translate(128.173 56.238)" style="font-family:'Asap-Regular';font-size:6px">B</text><circle cx="134.45" cy="60.96" r="1.13"/></svg>