<svg version="1.1" xmlns="http://www.w3.org/2000/svg" x="0" y="0" viewBox="0 0 311.81 254.61" style="enable-background:new 0 0 311.81 254.61" xml:space="preserve"><line style="fill:none;stroke:#3a53a4;stroke-width:.5;stroke-linecap:square;stroke-linejoin:round" x1="41.06" y1="191.45" x2="182.03" y2="64.11"/><path style="fill:none;stroke:#a01d20;stroke-width:.5;stroke-linecap:square;stroke-linejoin:round" d="M92.73 201.36S86.76 72.11 267.58 52.78"/><line style="fill:none;stroke:#6d6e71;stroke-width:.5;stroke-linecap:square;stroke-linejoin:round" x1="30.1" y1="201.88" x2="27.03" y2="201.88"/><line style="fill:none;stroke:#6d6e71;stroke-width:.5;stroke-linecap:square;stroke-linejoin:round" x1="29.59" y1="201.88" x2="29.59" y2="36.42"/><line style="fill:none;stroke:#6d6e71;stroke-width:.5;stroke-linecap:square;stroke-linejoin:round" x1="29.59" y1="201.36" x2="29.59" y2="203.49"/><line style="fill:none;stroke:#6d6e71;stroke-width:.5;stroke-linecap:square;stroke-linejoin:round" x1="29.59" y1="201.88" x2="276.91" y2="201.88"/><text transform="translate(19.55 203.381)" style="font-family:'Asap-Regular';font-size:7px">0</text><text transform="translate(14.55 106.458)" style="font-family:'Asap-Regular';font-size:7px">0.6</text><text transform="translate(19.8 38.542)" style="font-family:'Asap-Regular';font-size:7px">1</text><text transform="translate(27.289 214.78)" style="font-family:'Asap-Regular';font-size:7px">0</text><text transform="translate(71.776 214.78)"><tspan x="0" y="0" style="font-family:'Asap-Regular';font-size:7px">Reservation</tspan><tspan x="9.99" y="8.4" style="font-family:'Asap-Regular';font-size:7px">wage</tspan></text><text transform="translate(111.564 214.78)"><tspan x="0" y="0" style="font-family:'Asap-Regular';font-size:7px">Employer’s profit-</tspan><tspan x=".3" y="8.4" style="font-family:'Asap-Regular';font-size:7px">maximizing wage</tspan><tspan x="11.7" y="16.8" style="font-family:'Asap-Regular';font-size:7px">(no union)</tspan></text><text transform="translate(131.669 99.92)" style="font-family:'Asap-Regular';font-size:6px">A</text><line style="fill:none;stroke:#6d6e71;stroke-width:.5;stroke-linecap:square;stroke-linejoin:round" x1="276.91" y1="201.36" x2="276.91" y2="203.49"/><line style="fill:none;stroke:#6d6e71;stroke-width:.5;stroke-linecap:square;stroke-linejoin:round" x1="30.1" y1="36.42" x2="27.03" y2="36.42"/><text transform="rotate(-90 73.908 65.908)" style="font-family:'Asap-Medium';font-size:8px">Effort per hour</text><line style="fill:none;stroke:#6d6e71;stroke-width:.5;stroke-linecap:square;stroke-linejoin:round" x1="30.1" y1="103.39" x2="27.03" y2="103.39"/><line style="fill:none;stroke:#6d6e71;stroke-width:.5;stroke-linecap:square;stroke-linejoin:round" x1="92.73" y1="201.36" x2="92.73" y2="203.49"/><text transform="translate(237.256 65.28)"><tspan x="0" y="0" style="fill:#a01d20;font-family:'Asap-Regular';font-size:6px">Best response curve</tspan><tspan x="0" y="7.2" style="fill:#a01d20;font-family:'Asap-Regular';font-size:6px">(no union)</tspan></text><line style="fill:none;stroke:#6d6e71;stroke-width:.5;stroke-linecap:square;stroke-linejoin:round" x1="137.73" y1="201.36" x2="137.73" y2="203.49"/><polyline style="fill:none;stroke:#939598;stroke-width:.5;stroke-miterlimit:10;stroke-dasharray:1.4173" points="137.73 201.36 137.92 103.39 29.59 103.39"/><text transform="translate(131.091 247.78)" style="font-family:'Asap-Medium';font-size:8px">Hourly wage ($)</text><circle cx="137.92" cy="103.39" r="1.13"/></svg>