<svg version="1.1" xmlns="http://www.w3.org/2000/svg" x="0" y="0" viewBox="0 0 311.81 173.98" style="enable-background:new 0 0 311.81 173.98" xml:space="preserve"><path style="fill:none;stroke:#6d245a;stroke-width:.5;stroke-miterlimit:10" d="M106.34 115.98s90-24 103-96"/><path style="fill:none;stroke:#c473af;stroke-width:.5;stroke-miterlimit:10" d="M79 101.64S159.33 83.68 180.33 16"/><path style="fill:none;stroke:#b9519e;stroke-width:.5;stroke-miterlimit:10" d="M99.66 107.51s81.68-19.53 102.68-95.86"/><line style="fill:none;stroke:#000;stroke-width:.5;stroke-linecap:square;stroke-linejoin:round" x1="230.67" y1="76.96" x2="32.04" y2="76.96"/><line style="fill:none;stroke:#6d6e71;stroke-width:.5;stroke-linecap:square;stroke-linejoin:round" x1="31.66" y1="141.42" x2="29.54" y2="141.42"/><line style="fill:none;stroke:#6d6e71;stroke-width:.5;stroke-linecap:square;stroke-linejoin:round" x1="31.53" y1="141.42" x2="31.53" y2="25.96"/><line style="fill:none;stroke:#6d6e71;stroke-width:.5;stroke-linecap:square;stroke-linejoin:round" x1="31.53" y1="141.19" x2="31.53" y2="143.32"/><line style="fill:none;stroke:#6d6e71;stroke-width:.5;stroke-linecap:square;stroke-linejoin:round" x1="31.53" y1="141.42" x2="230.67" y2="141.42"/><text transform="translate(168.615 154.222)" style="font-family:'Asap-Italic';font-size:7px">N</text><text transform="matrix(.583 0 0 .583 173.649 151.891)" style="font-family:'Asap-Regular';font-size:7px">UNION</text><text transform="translate(155.727 154.222)" style="font-family:'Asap-Italic';font-size:7px">N</text><text transform="matrix(.583 0 0 .583 160.76 151.891)" style="font-family:'Asap-Regular';font-size:7px">*</text><text transform="translate(153.173 72.238)" style="font-family:'Asap-Regular';font-size:6px">X</text><line style="fill:none;stroke:#6d6e71;stroke-width:.5;stroke-linecap:square;stroke-linejoin:round" x1="230.67" y1="141.19" x2="230.67" y2="143.32"/><line style="fill:none;stroke:#6d6e71;stroke-width:.5;stroke-linecap:square;stroke-linejoin:round" x1="31.66" y1="25.96" x2="29.54" y2="25.96"/><text transform="translate(104.726 168.976)"><tspan x="0" y="0" style="font-family:'Asap-Medium';font-size:8px">Employment, </tspan><tspan x="48.3" y="0" style="font-family:'Asap-MediumItalic';font-size:8px">N</tspan></text><text transform="rotate(-90 53.817 38.208)" style="font-family:'Asap-Medium';font-size:8px">Real wage</text><circle cx="158.67" cy="76.96" r="1.13"/><line style="fill:none;stroke:#6d6e71;stroke-width:.5;stroke-linecap:square;stroke-linejoin:round" x1="31.66" y1="76.96" x2="29.54" y2="76.96"/><line style="fill:none;stroke:#6d6e71;stroke-width:.5;stroke-linecap:square;stroke-linejoin:round" x1="158.34" y1="141.19" x2="158.34" y2="143.32"/><text transform="translate(235.343 78.374)" style="font-family:'Asap-Regular';font-size:6px">Price-setting curve</text><text transform="translate(196.677 7.957)" style="font-family:'Asap-Regular';font-size:6px">Wage-setting curve (no union)</text><text transform="translate(76.677 52.29)"><tspan x="0" y="0" style="font-family:'Asap-Regular';font-size:6px">Wage-setting curve (union</tspan><tspan x="3.24" y="7.2" style="font-family:'Asap-Regular';font-size:6px">wage bargaining effect)</tspan></text><text transform="translate(58.678 126.79)"><tspan x="0" y="0" style="font-family:'Asap-Regular';font-size:6px">Wage-setting curve (union</tspan><tspan x="-10.23" y="7.2" style="font-family:'Asap-Regular';font-size:6px">wage bargaining and voice effect)</tspan></text><text transform="translate(236.339 36.374)" style="fill:#ed2124;font-family:'Asap-Regular';font-size:6px">Average product of labour</text><line style="fill:none;stroke:#6d6e71;stroke-width:.5;stroke-linecap:square;stroke-linejoin:round" x1="176.67" y1="141.19" x2="176.67" y2="143.32"/><line style="fill:none;stroke:#939598;stroke-width:.5;stroke-miterlimit:10;stroke-dasharray:1.4173" x1="158.67" y1="139.28" x2="158.67" y2="76.96"/><circle cx="176.67" cy="77.05" r="1.13"/><line style="fill:none;stroke:#939598;stroke-width:.5;stroke-miterlimit:10;stroke-dasharray:1.4173" x1="176.67" y1="139.38" x2="176.67" y2="77.05"/><line style="fill:none;stroke:#ed2124;stroke-width:.5;stroke-linecap:square;stroke-linejoin:round;stroke-dasharray:1.4173" x1="32.04" y1="35.68" x2="230.67" y2="35.68"/><text transform="translate(173.173 72.238)" style="font-family:'Asap-Regular';font-size:6px">Y</text></svg>