<svg version="1.1" xmlns="http://www.w3.org/2000/svg" x="0" y="0" viewBox="0 0 311.81 136.5" style="enable-background:new 0 0 311.81 136.5" xml:space="preserve"><rect x="85.16" y="2.5" style="fill:#e2eae1" width="141.5" height="62.5"/><rect x="85.16" y="71.99" style="fill:#f3e9f3" width="141.5" height="62.5"/><rect x="107.82" y="36.49" style="fill:#fff" width="98" height="56.84"/><rect x="115.86" y="67.31" style="fill:#e3e3f2" width="62.75" height="12.91"/><text transform="translate(128.868 13.666)"><tspan x="0" y="0" style="fill:#009147;font-family:'Asap-Bold';font-size:7px">EXPENDITURE ($)</tspan><tspan x="-27.47" y="8.4" style="fill:#009147;font-family:'Asap-Regular';font-size:7px">Money spent on goods and services</tspan></text><text transform="translate(91.913 111.434)"><tspan x="0" y="0" style="fill:#b9519e;font-family:'Asap-Bold';font-size:7px">VALUE ADDED BY FIRMS ($) = INCOME ($)</tspan><tspan x="6.23" y="8.4" style="fill:#b9519e;font-family:'Asap-Regular';font-size:7px">Income received as wages and profits</tspan><tspan x="-1" y="16.8" style="fill:#b9519e;font-family:'Asap-Regular';font-size:7px">from the production of goods and services</tspan></text><text transform="translate(128.244 75.767)" style="fill:#3a53a4;font-family:'Asap-Regular';font-size:7px">labour force</text><rect x="57.16" y="52" style="fill:#fff;stroke:#f15c5b;stroke-miterlimit:10" width="56" height="27.33"/><rect x="198.66" y="52" style="fill:#fff;stroke:#3a53a4;stroke-miterlimit:10" width="56" height="27.33"/><text transform="translate(75.57 67.667)" style="fill:#f15c5b;font-family:'Asap-Bold';font-size:7px">FIRMS</text><text transform="translate(204.378 67.667)" style="fill:#3a53a4;font-family:'Asap-Bold';font-size:7px">HOUSEHOLDS</text><polyline style="fill:none;stroke:#009147;stroke-miterlimit:10" points="213.82 47.67 213.82 28.67 98.16 28.67 98.16 46.58"/><polygon style="fill:#009147" points="94.07 43.27 94.8 42.59 98.15 46.2 101.51 42.59 102.24 43.27 98.15 47.67"/><polyline style="fill:none;stroke:#bd88ae;stroke-miterlimit:10" points="98.07 84 98.07 100.32 213.74 100.32 213.74 85.08"/><polygon style="fill:#bd88ae" points="217.83 88.4 217.1 89.08 213.74 85.47 210.38 89.08 209.65 88.4 213.74 84"/><line style="fill:none;stroke:#f15c5b;stroke-miterlimit:10" x1="113.16" y1="57.33" x2="128.74" y2="57.33"/><polygon style="fill:#f15c5b" points="125.42 61.42 124.74 60.69 128.35 57.33 124.74 53.98 125.42 53.24 129.82 57.33"/><g><line style="fill:none;stroke:#3a53a4;stroke-miterlimit:10" x1="198.66" y1="73.99" x2="182.91" y2="73.99"/><polygon style="fill:#3a53a4" points="186.22 69.9 186.9 70.63 183.29 73.99 186.9 77.35 186.22 78.08 181.82 73.99"/></g><rect x="132.66" y="51.03" style="fill:#fee7dc" width="62.75" height="12.91"/><text transform="translate(140.788 59.767)" style="fill:#ed2124;font-family:'Asap-Regular';font-size:7px">goods, services</text></svg>