<svg version="1.1" xmlns="http://www.w3.org/2000/svg" x="0" y="0" viewBox="0 0 311.81 238" style="enable-background:new 0 0 311.81 238" xml:space="preserve"><line style="fill:none;stroke:#ed2124;stroke-width:.5;stroke-miterlimit:10;stroke-dasharray:1.4173" x1="65.55" y1="27.73" x2="120.53" y2="87.97"/><line style="fill:none;stroke:#ed2124;stroke-width:.5;stroke-miterlimit:10;stroke-dasharray:1.4173" x1="192.57" y1="166.91" x2="229.33" y2="207.19"/><line style="fill:none;stroke:#ed2124;stroke-width:.5;stroke-miterlimit:10" x1="120.79" y1="87.73" x2="192.33" y2="166.67"/><path style="fill:none;stroke:#3a53a4;stroke-width:.5;stroke-miterlimit:10" d="M108.84 55.72s23.5 101 105.5 118"/><line style="fill:none;stroke:#6d6e71;stroke-width:.5;stroke-linecap:square;stroke-linejoin:round" x1="65.95" y1="3.73" x2="63.82" y2="3.73"/><line style="fill:none;stroke:#6d6e71;stroke-width:.5;stroke-linecap:square;stroke-linejoin:round" x1="65.95" y1="206.9" x2="63.82" y2="206.9"/><line style="fill:none;stroke:#6d6e71;stroke-width:.5;stroke-linecap:square;stroke-linejoin:round" x1="65.84" y1="206.9" x2="65.84" y2="3.73"/><line style="fill:none;stroke:#6d6e71;stroke-width:.5;stroke-linecap:square;stroke-linejoin:round" x1="280.33" y1="207.19" x2="280.33" y2="209.32"/><line style="fill:none;stroke:#6d6e71;stroke-width:.5;stroke-linecap:square;stroke-linejoin:round" x1="65.84" y1="207.19" x2="65.84" y2="209.32"/><line style="fill:none;stroke:#6d6e71;stroke-width:.5;stroke-linecap:square;stroke-linejoin:round" x1="65.84" y1="206.9" x2="280.33" y2="207.19"/><text transform="translate(53.707 208.897)" style="font-family:'Asap-Regular';font-size:7px">0</text><text transform="translate(64.627 220.578)" style="font-family:'Asap-Regular';font-size:7px">0</text><line style="fill:none;stroke:#6d6e71;stroke-width:.5;stroke-linecap:square;stroke-linejoin:round" x1="229.33" y1="207.19" x2="229.33" y2="209.32"/><line style="fill:none;stroke:#6d6e71;stroke-width:.5;stroke-linecap:square;stroke-linejoin:round" x1="65.95" y1="27.73" x2="63.82" y2="27.73"/><text transform="translate(121.908 84.5)" style="font-family:'Asap-Regular';font-size:6px">C</text><ellipse cx="192.33" cy="166.73" rx="1.13" ry="1.42"/><ellipse cx="120.33" cy="87.73" rx="1.13" ry="1.42"/><text transform="translate(194.57 165.144)" style="font-family:'Asap-Regular';font-size:6px">E</text><text transform="translate(217.07 175.894)" style="font-family:'Asap-Regular';font-size:6px">Julia’s indifference curve</text><line style="fill:none;stroke:#000;stroke-width:.5;stroke-miterlimit:10" x1="112.88" y1="72.71" x2="127.83" y2="105.12"/><line style="fill:none;stroke:#000;stroke-width:.5;stroke-miterlimit:10" x1="175.14" y1="159.89" x2="207.59" y2="173.56"/><text transform="rotate(-90 79.667 49.016)" style="font-family:'Asap-Medium';font-size:8px">Consumption later ($)</text><text transform="translate(121.687 231.53)" style="font-family:'Asap-Medium';font-size:8px">Consumption now ($)</text></svg>