<svg xmlns="http://www.w3.org/2000/svg" class="prefix__svglite" viewBox="0 0 809 284"><rect width="100%" height="100%" style="stroke:none;fill:#fff;stroke-linecap:round;stroke-linejoin:round;stroke-miterlimit:10"/><defs><clipPath id="prefix__a"><rect x="0" y="0" width="809" height="284" style="fill:none;stroke:#000;stroke-linecap:round;stroke-linejoin:round;stroke-miterlimit:10"/></clipPath></defs><g clip-path="url(#prefix__a)"><rect x="0" y="0" width="809" height="284" style="stroke-width:1.07;stroke:#fff;fill:#fff;stroke-linecap:round;stroke-linejoin:round;stroke-miterlimit:10"/><rect x="116.4" y="34.02" width="553.5" height="169.09" style="stroke-width:1.07;stroke:none;fill:#fff;stroke-linecap:round;stroke-linejoin:round;stroke-miterlimit:10"/><polyline points="116.4 203.1 669.91 203.1" style="stroke-width:1.07;stroke:#c6c4c4;stroke-linecap:butt;fill:none;stroke-linejoin:round;stroke-miterlimit:10"/><polyline points="116.4 160.83 669.91 160.83" style="stroke-width:1.07;stroke:#c6c4c4;stroke-linecap:butt;fill:none;stroke-linejoin:round;stroke-miterlimit:10"/><polyline points="116.4 118.56 669.91 118.56" style="stroke-width:1.07;stroke:#c6c4c4;stroke-linecap:butt;fill:none;stroke-linejoin:round;stroke-miterlimit:10"/><polyline points="116.4 76.29 669.91 76.29" style="stroke-width:1.07;stroke:#c6c4c4;stroke-linecap:butt;fill:none;stroke-linejoin:round;stroke-miterlimit:10"/><polyline points="116.4 34.02 669.91 34.02" style="stroke-width:1.07;stroke:#c6c4c4;stroke-linecap:butt;fill:none;stroke-linejoin:round;stroke-miterlimit:10"/><polyline points="121.88 135.89 124.62 135.8 127.36 135.72 130.1 135.64 132.84 135.55 135.58 135.47 138.32 135.3 141.06 135.21 143.8 135.04 146.54 134.87 149.28 134.71 152.02 134.54 154.76 134.37 157.5 134.2 160.24 134.03 162.98 133.86 165.72 133.69 168.46 133.52 171.2 133.35 173.94 133.18 176.69 133.02 179.43 132.93 182.17 132.76 184.91 132.68 187.65 132.51 190.39 132.42 193.13 132.34 195.87 132.25 198.61 132.17 201.35 132.09 204.09 132.09 206.83 132 209.57 132 212.31 132 215.05 132.09 217.79 132.09 220.53 132.17 223.27 132.25 226.01 132.42 228.75 132.59 231.49 132.76 234.23 132.93 236.97 133.1 239.71 133.35 242.45 133.52 245.19 133.61 247.93 133.78 250.67 133.86 253.41 133.86 256.15 133.86 258.89 133.78 261.63 133.69 264.37 133.61 267.11 133.52 269.85 133.35 272.59 133.27 275.33 133.1 278.07 133.02 280.81 132.93 283.55 132.85 286.29 132.76 289.03 132.68 291.77 132.68 294.51 132.76 297.25 132.85 299.99 133.02 302.73 133.18 305.47 133.44 308.21 133.69 310.95 133.94 313.69 134.2 316.43 134.45 319.17 134.62 321.91 134.87 324.65 135.04 327.39 135.13 330.13 135.21 332.87 135.21 335.61 135.21 338.35 135.13 341.09 135.04 343.83 134.96 346.57 134.87 349.31 134.79 352.05 134.71 354.79 134.71 357.53 134.71 360.27 134.71 363.01 134.79 365.75 134.87 368.49 134.96 371.23 134.96 373.97 134.96 376.71 134.79 379.45 134.62 382.19 134.37 384.93 134.11 387.67 133.86 390.41 133.61 393.15 133.35 395.89 133.18 398.63 133.02 401.37 132.85 404.12 132.76 406.86 132.76 409.6 132.76 412.34 132.85 415.08 132.93 417.82 133.1 420.56 133.27 423.3 133.61 426.04 133.94 428.78 134.45 431.52 135.04 434.26 135.72 437 136.48 439.74 137.16 442.48 137.92 445.22 138.51 447.96 139.02 450.7 139.27 453.44 139.44 456.18 139.44 458.92 139.36 461.66 139.19 464.4 138.93 467.14 138.76 469.88 138.59 472.62 138.51 475.36 138.43 478.1 138.43 480.84 138.43 483.58 138.51 486.32 138.51 489.06 138.51 491.8 138.51 494.54 138.43 497.28 138.34 500.02 138.26 502.76 138.17 505.5 138.09 508.24 138 510.98 138 513.72 138 516.46 138 519.2 138.09 521.94 138.09 524.68 138.09 527.42 138 530.16 137.83 532.9 137.5 535.64 137.16 538.38 136.65 541.12 136.06 543.86 135.38 546.6 134.79 549.34 134.11 552.08 133.52 554.82 133.02 557.56 132.59 560.3 132.25 563.04 132.09 565.78 131.92 568.52 131.83 571.26 131.75 574 131.66 576.74 131.58 579.48 131.41 582.22 131.07 584.96 130.65 587.7 130.14 590.44 129.38 593.18 128.53 595.92 127.52 598.66 126.34 601.4 125.07 604.14 123.88 606.88 122.62 609.62 121.35 612.36 120.08 615.1 118.64 617.84 117.29 620.58 115.85 623.32 114.42 626.06 113.06 628.8 111.79 631.55 110.7 634.29 109.68 637.03 108.41 639.77 106.64 642.51 104.27 645.25 101.23 647.99 97.68 650.73 93.7 653.47 85.86 656.21 79.63 658.95 72.61 661.69 67.16 664.43 59.78 667.17 51.09 669.91 42.6" style="stroke-width:1.2;stroke:#009147;stroke-linecap:butt;fill:none;stroke-linejoin:round;stroke-miterlimit:10"/><line x1="116.4" y1="203.1" x2="669.91" y2="203.1" style="stroke-width:1.07;stroke:#333;stroke-linecap:butt;fill:none;stroke-linejoin:round;stroke-miterlimit:10"/><polyline points="527.97 203.08 528.52 203.08 529.06 203.08 529.61 203.08 530.16 203.08 530.71 203.08 531.26 203.08 531.8 203.08 532.35 203.08 532.9 203.08 533.45 203.08 534 203.08 534.54 203.08 535.09 203.08 535.64 203.08 536.19 203.08 536.74 203.08 537.28 203.08 537.83 203.08 538.38 203.08 538.93 203.07 539.48 203.07 540.02 203.07 540.57 203.07 541.12 203.07 541.67 203.07 542.22 203.07 542.77 203.07 543.31 203.07 543.86 203.07 544.41 203.05 544.96 203.05 545.51 203.05 546.05 203.05 546.6 203.05 547.15 203.05 547.7 203.05 548.25 203.05 548.79 203.05 549.34 203.05 549.89 203.03 550.44 203.03 550.99 203.03 551.53 203.03 552.08 203.03 552.63 203.03 553.18 203.02 553.73 203.02 554.27 203.02 554.82 203 555.37 203 555.92 202.97 556.47 202.98 557.01 202.98 557.56 202.98 558.11 202.97 558.66 202.97 559.21 202.97 559.75 202.97 560.3 202.97 560.85 202.95 561.4 202.95 561.95 202.95 562.49 202.95 563.04 202.93 563.59 202.91 564.14 202.9 564.69 202.9 565.23 202.9 565.78 202.9 566.33 202.9 566.88 202.88 567.43 202.86 567.97 202.86 568.52 202.85 569.07 202.85 569.62 202.83 570.17 202.83 570.71 202.83 571.26 202.73 571.81 202.75 572.36 202.75 572.91 202.73 573.45 202.73 574 202.71 574.55 202.64 575.1 202.64 575.65 202.63 576.19 202.61 576.74 202.58 577.29 202.56 577.84 202.53 578.39 202.51 578.93 202.47 579.48 202.41 580.03 202.41 580.58 202.36 581.13 202.34 581.67 202.29 582.22 202.22 582.77 202.22 583.32 202.17 583.87 202.14 584.41 201.97 584.96 201.93 585.51 201.85 586.06 201.83 586.61 201.82 587.16 201.73 587.7 201.6 588.25 201.53 588.8 201.49 589.35 201.38 589.9 201.24 590.44 201.12 590.99 201.07 591.54 200.94 592.09 200.85 592.64 200.73 593.18 200.65 593.73 200.5 594.28 200.21 594.83 200.02 595.38 200.19 595.92 199.95 596.47 199.9 597.02 199.85 597.57 199.82 598.12 199.58 598.66 199.14 599.21 199.02 599.76 198.8 600.31 198.53 600.86 198.48 601.4 198.45 601.95 198.38 602.5 198.15 603.05 197.6 603.6 197.6 604.14 197.11 604.69 196.84 605.24 196.81 605.79 196.88 606.34 196.66 606.88 196.27 607.43 196.05 607.98 195.69 608.53 195.27 609.08 194.56 609.62 194.1 610.17 193.8 610.72 193.56 611.27 192.7 611.82 192.58 612.36 191.92 612.91 191.18 613.46 189.87 614.01 190.45 614.56 189.86 615.1 189.28 615.65 188.99 616.2 188.27 616.75 187.19 617.3 188.76 617.84 188.96 618.39 187.9 618.94 186.98 619.49 187.3 620.04 189.5 620.58 187.37 621.13 189.55 621.68 188.84 622.23 186.73 622.78 186.85 623.32 186.64 623.87 186.51 624.42 185.17 624.97 185.12 625.52 183.77 626.06 185.32 626.61 187.24 627.16 188.81 627.71 188.03 628.26 186.68 628.8 185.76 629.35 184.02 629.9 182.69 630.45 183.82 631 182.97 631.55 181.16 632.09 180.57 632.64 180.44 633.19 179.61 633.74 179.74 634.29 183.51 634.83 182.2 635.38 179.59 635.93 178.29 636.48 179.13 637.03 175.57 637.57 173.25 638.12 172.77 638.67 172 639.22 171.59 639.77 168.6 640.31 166.31 640.86 164.74 641.41 163.73 641.96 161.63 642.51 159.68 643.05 159.5 643.6 157.7 644.15 155.22 644.7 152.48 645.25 150.2 645.79 147.52 646.34 145.75 646.89 142.82 647.44 139.2 647.99 134.58 648.53 131.96 649.08 129.12 649.63 125.1 650.18 124.94 650.73 125.4 651.27 120.87 651.82 118.13 652.37 117.1 652.92 112.33 653.47 113.24 654.01 116 654.56 116.66 655.11 116.98 655.66 113.83 656.21 111.14 656.75 108.3 657.3 105.85 657.85 102.25 658.4 100.01 658.95 99.51 661.69 94.92 664.43 88.71 667.17 66.25 669.91 48.09" style="stroke-width:1.2;stroke:#f49323;stroke-linecap:butt;fill:none;stroke-linejoin:round;stroke-miterlimit:10"/><text x="143.8" y="154.14" style="font-size:14px;font-family:Asap" textLength="78.09" lengthAdjust="spacingAndGlyphs">Atmospheric</text><text x="225.26" y="154.14" style="font-size:14px;font-family:Asap" textLength="18.9" lengthAdjust="spacingAndGlyphs">CO</text><text x="244.16" y="158.07" style="font-size:11.2px;font-family:Asap" textLength="5.98" lengthAdjust="spacingAndGlyphs">2</text><text x="417.82" y="177.02" style="font-size:14px;font-family:Asap" textLength="41.29" lengthAdjust="spacingAndGlyphs">Global</text><text x="462.47" y="177.02" style="font-size:14px;font-family:Asap" textLength="43.27" lengthAdjust="spacingAndGlyphs">carbon</text><text x="509.1" y="177.02" style="font-size:14px;font-family:Asap" textLength="59.94" lengthAdjust="spacingAndGlyphs">emissions</text><text x="417.82" y="193.76" style="font-size:14px;font-family:Asap" textLength="29.51" lengthAdjust="spacingAndGlyphs">from</text><text x="450.69" y="193.76" style="font-size:14px;font-family:Asap" textLength="60.48" lengthAdjust="spacingAndGlyphs">fossil-fuel</text><text x="514.53" y="193.76" style="font-size:14px;font-family:Asap" textLength="47.84" lengthAdjust="spacingAndGlyphs">burning</text><polyline points="116.4 203.1 116.4 34.02" style="stroke-width:1.07;stroke:#464646;stroke-linecap:butt;fill:none;stroke-linejoin:round;stroke-miterlimit:10"/><text x="70.45" y="207.51" style="font-size:18px;font-family:Asap" textLength="28.9" lengthAdjust="spacingAndGlyphs">200</text><text x="70.45" y="165.24" style="font-size:18px;font-family:Asap" textLength="28.9" lengthAdjust="spacingAndGlyphs">250</text><text x="70.45" y="122.97" style="font-size:18px;font-family:Asap" textLength="28.9" lengthAdjust="spacingAndGlyphs">300</text><text x="70.45" y="80.7" style="font-size:18px;font-family:Asap" textLength="28.9" lengthAdjust="spacingAndGlyphs">350</text><text x="70.45" y="38.43" style="font-size:18px;font-family:Asap" textLength="28.9" lengthAdjust="spacingAndGlyphs">400</text><polyline points="109.32 203.1 116.4 203.1" style="stroke-width:1.07;stroke:#464646;stroke-linecap:butt;fill:none;stroke-linejoin:round;stroke-miterlimit:10"/><polyline points="109.32 160.83 116.4 160.83" style="stroke-width:1.07;stroke:#464646;stroke-linecap:butt;fill:none;stroke-linejoin:round;stroke-miterlimit:10"/><polyline points="109.32 118.56 116.4 118.56" style="stroke-width:1.07;stroke:#464646;stroke-linecap:butt;fill:none;stroke-linejoin:round;stroke-miterlimit:10"/><polyline points="109.32 76.29 116.4 76.29" style="stroke-width:1.07;stroke:#464646;stroke-linecap:butt;fill:none;stroke-linejoin:round;stroke-miterlimit:10"/><polyline points="109.32 34.02 116.4 34.02" style="stroke-width:1.07;stroke:#464646;stroke-linecap:butt;fill:none;stroke-linejoin:round;stroke-miterlimit:10"/><polyline points="669.91 203.1 669.91 34.02" style="stroke-width:1.07;stroke:#464646;stroke-linecap:butt;fill:none;stroke-linejoin:round;stroke-miterlimit:10"/><polyline points="669.91 203.1 676.99 203.1" style="stroke-width:1.07;stroke:#464646;stroke-linecap:butt;fill:none;stroke-linejoin:round;stroke-miterlimit:10"/><polyline points="669.91 160.79 676.99 160.79" style="stroke-width:1.07;stroke:#464646;stroke-linecap:butt;fill:none;stroke-linejoin:round;stroke-miterlimit:10"/><polyline points="669.91 118.64 676.99 118.64" style="stroke-width:1.07;stroke:#464646;stroke-linecap:butt;fill:none;stroke-linejoin:round;stroke-miterlimit:10"/><polyline points="669.91 76.33 676.99 76.33" style="stroke-width:1.07;stroke:#464646;stroke-linecap:butt;fill:none;stroke-linejoin:round;stroke-miterlimit:10"/><polyline points="669.91 34.02 676.99 34.02" style="stroke-width:1.07;stroke:#464646;stroke-linecap:butt;fill:none;stroke-linejoin:round;stroke-miterlimit:10"/><text x="686.96" y="209.42" style="font-size:18px;font-family:Asap" textLength="9.63" lengthAdjust="spacingAndGlyphs">0</text><text x="686.96" y="167.11" style="font-size:18px;font-family:Asap" textLength="42.1" lengthAdjust="spacingAndGlyphs">2,500</text><text x="686.96" y="124.96" style="font-size:18px;font-family:Asap" textLength="42.1" lengthAdjust="spacingAndGlyphs">5,000</text><text x="686.96" y="82.65" style="font-size:18px;font-family:Asap" textLength="42.1" lengthAdjust="spacingAndGlyphs">7,500</text><text x="686.96" y="40.33" style="font-size:18px;font-family:Asap" textLength="51.73" lengthAdjust="spacingAndGlyphs">10,000</text><polyline points="116.4 210.19 116.4 203.1" style="stroke-width:1.07;stroke:#464646;stroke-linecap:butt;fill:none;stroke-linejoin:round;stroke-miterlimit:10"/><polyline points="171.2 210.19 171.2 203.1" style="stroke-width:1.07;stroke:#464646;stroke-linecap:butt;fill:none;stroke-linejoin:round;stroke-miterlimit:10"/><polyline points="226.01 210.19 226.01 203.1" style="stroke-width:1.07;stroke:#464646;stroke-linecap:butt;fill:none;stroke-linejoin:round;stroke-miterlimit:10"/><polyline points="280.81 210.19 280.81 203.1" style="stroke-width:1.07;stroke:#464646;stroke-linecap:butt;fill:none;stroke-linejoin:round;stroke-miterlimit:10"/><polyline points="335.61 210.19 335.61 203.1" style="stroke-width:1.07;stroke:#464646;stroke-linecap:butt;fill:none;stroke-linejoin:round;stroke-miterlimit:10"/><polyline points="390.41 210.19 390.41 203.1" style="stroke-width:1.07;stroke:#464646;stroke-linecap:butt;fill:none;stroke-linejoin:round;stroke-miterlimit:10"/><polyline points="445.22 210.19 445.22 203.1" style="stroke-width:1.07;stroke:#464646;stroke-linecap:butt;fill:none;stroke-linejoin:round;stroke-miterlimit:10"/><polyline points="500.02 210.19 500.02 203.1" style="stroke-width:1.07;stroke:#464646;stroke-linecap:butt;fill:none;stroke-linejoin:round;stroke-miterlimit:10"/><polyline points="554.82 210.19 554.82 203.1" style="stroke-width:1.07;stroke:#464646;stroke-linecap:butt;fill:none;stroke-linejoin:round;stroke-miterlimit:10"/><polyline points="609.62 210.19 609.62 203.1" style="stroke-width:1.07;stroke:#464646;stroke-linecap:butt;fill:none;stroke-linejoin:round;stroke-miterlimit:10"/><polyline points="664.43 210.19 664.43 203.1" style="stroke-width:1.07;stroke:#464646;stroke-linecap:butt;fill:none;stroke-linejoin:round;stroke-miterlimit:10"/><text x="97.14" y="232.79" style="font-size:18px;font-family:Asap" textLength="38.53" lengthAdjust="spacingAndGlyphs">1000</text><text x="151.94" y="232.79" style="font-size:18px;font-family:Asap" textLength="38.53" lengthAdjust="spacingAndGlyphs">1100</text><text x="206.74" y="232.79" style="font-size:18px;font-family:Asap" textLength="38.53" lengthAdjust="spacingAndGlyphs">1200</text><text x="261.54" y="232.79" style="font-size:18px;font-family:Asap" textLength="38.53" lengthAdjust="spacingAndGlyphs">1300</text><text x="316.34" y="232.79" style="font-size:18px;font-family:Asap" textLength="38.53" lengthAdjust="spacingAndGlyphs">1400</text><text x="371.15" y="232.79" style="font-size:18px;font-family:Asap" textLength="38.53" lengthAdjust="spacingAndGlyphs">1500</text><text x="425.95" y="232.79" style="font-size:18px;font-family:Asap" textLength="38.53" lengthAdjust="spacingAndGlyphs">1600</text><text x="480.75" y="232.79" style="font-size:18px;font-family:Asap" textLength="38.53" lengthAdjust="spacingAndGlyphs">1700</text><text x="535.55" y="232.79" style="font-size:18px;font-family:Asap" textLength="38.53" lengthAdjust="spacingAndGlyphs">1800</text><text x="590.36" y="232.79" style="font-size:18px;font-family:Asap" textLength="38.53" lengthAdjust="spacingAndGlyphs">1900</text><text x="645.16" y="232.79" style="font-size:18px;font-family:Asap" textLength="38.53" lengthAdjust="spacingAndGlyphs">2000</text><text x="373.06" y="265.59" style="font-size:20px;font-weight:500;font-family:Asap Medium" textLength="40.18" lengthAdjust="spacingAndGlyphs">Year</text><text transform="rotate(-90 118.455 90.245)" style="font-size:20px;font-weight:500;fill:#009147;font-family:Asap Medium" textLength="111.56" lengthAdjust="spacingAndGlyphs">Atmospheric</text><text transform="rotate(-90 60.27 32.06)" style="font-size:20px;font-weight:500;fill:#009147;font-family:Asap Medium" textLength="27" lengthAdjust="spacingAndGlyphs">CO</text><text transform="rotate(-90 49.58 15.75)" style="font-size:16px;font-weight:500;fill:#009147;font-family:Asap Medium" textLength="8.56" lengthAdjust="spacingAndGlyphs">2</text><text transform="rotate(-90 131.49 80.22)" style="font-size:20px;font-weight:500;fill:#009147;font-family:Asap Medium" textLength="50.8" lengthAdjust="spacingAndGlyphs">(parts</text><text transform="rotate(-90 103.685 52.415)" style="font-size:20px;font-weight:500;fill:#009147;font-family:Asap Medium" textLength="29.56" lengthAdjust="spacingAndGlyphs">per</text><text transform="rotate(-90 86.505 35.235)" style="font-size:20px;font-weight:500;fill:#009147;font-family:Asap Medium" textLength="67.98" lengthAdjust="spacingAndGlyphs">million)</text><text transform="rotate(-90 499.565 -268.105)" style="font-size:20px;font-weight:500;fill:#f49323;font-family:Asap Medium" textLength="64.5" lengthAdjust="spacingAndGlyphs">Carbon</text><text transform="rotate(-90 464.915 -302.755)" style="font-size:20px;font-weight:500;fill:#f49323;font-family:Asap Medium" textLength="85.64" lengthAdjust="spacingAndGlyphs">emissions</text><text transform="rotate(-90 530.04 -260.55)" style="font-size:20px;font-weight:500;fill:#f49323;font-family:Asap Medium" textLength="76.24" lengthAdjust="spacingAndGlyphs">(millions</text><text transform="rotate(-90 489.515 -301.075)" style="font-size:20px;font-weight:500;fill:#f49323;font-family:Asap Medium" textLength="17.88" lengthAdjust="spacingAndGlyphs">of</text><text transform="rotate(-90 478.175 -312.415)" style="font-size:20px;font-weight:500;fill:#f49323;font-family:Asap Medium" textLength="56.9" lengthAdjust="spacingAndGlyphs">metric</text><text transform="rotate(-90 447.32 -343.27)" style="font-size:20px;font-weight:500;fill:#f49323;font-family:Asap Medium" textLength="65.56" lengthAdjust="spacingAndGlyphs">tonnes)</text></g></svg>