<svg version="1.1" xmlns="http://www.w3.org/2000/svg" x="0" y="0" viewBox="0 0 311.81 134.11" style="enable-background:new 0 0 311.81 134.11" xml:space="preserve"><polygon style="fill:#e3e3f2" points="282.71 14.14 275.42 43.93 218.11 87.13 209.78 87.13"/><line style="fill:none;stroke:#6d6e71;stroke-width:.5;stroke-linecap:square;stroke-linejoin:round" x1="28.7" y1="87.13" x2="26.58" y2="87.13"/><line style="fill:none;stroke:#6d6e71;stroke-width:.5;stroke-linecap:square;stroke-linejoin:round" x1="28.65" y1="87.13" x2="28.65" y2="14.14"/><line style="fill:none;stroke:#6d6e71;stroke-width:.5;stroke-linecap:square;stroke-linejoin:round" x1="28.65" y1="87.17" x2="28.65" y2="89.3"/><line style="fill:none;stroke:#6d6e71;stroke-width:.5;stroke-linecap:square;stroke-linejoin:round" x1="28.65" y1="87.13" x2="133.28" y2="87.13"/><line style="fill:none;stroke:#6d6e71;stroke-width:.5;stroke-linecap:square;stroke-linejoin:round" x1="108.87" y1="87.17" x2="108.87" y2="89.3"/><line style="fill:none;stroke:#6d6e71;stroke-width:.5;stroke-linecap:square;stroke-linejoin:round" x1="128.66" y1="87.17" x2="128.66" y2="89.3"/><line style="fill:none;stroke:#6d6e71;stroke-width:.5;stroke-linecap:square;stroke-linejoin:round" x1="28.7" y1="45.46" x2="26.58" y2="45.46"/><line style="fill:none;stroke:#6d6e71;stroke-width:.5;stroke-linecap:square;stroke-linejoin:round" x1="28.7" y1="17.33" x2="26.58" y2="17.33"/><text transform="translate(16.087 20.308)" style="font-family:'Asap-Regular';font-size:7.2929px">1.0</text><text transform="translate(16.087 47.511)" style="font-family:'Asap-Regular';font-size:7.2929px">0.6</text><text transform="translate(21.178 90.227)" style="font-family:'Asap-Regular';font-size:7.2929px">0</text><text transform="translate(28.119 96.127)" style="font-family:'Asap-Regular';font-size:7.2929px">40</text><line style="fill:none;stroke:#6d6e71;stroke-width:.5;stroke-linecap:square;stroke-linejoin:round" x1="209.55" y1="87.13" x2="207.43" y2="87.13"/><line style="fill:none;stroke:#6d6e71;stroke-width:.5;stroke-linecap:square;stroke-linejoin:round" x1="209.78" y1="87.13" x2="209.78" y2="14.14"/><line style="fill:none;stroke:#6d6e71;stroke-width:.5;stroke-linecap:square;stroke-linejoin:round" x1="209.78" y1="87.17" x2="209.78" y2="89.3"/><line style="fill:none;stroke:#6d6e71;stroke-width:.5;stroke-linecap:square;stroke-linejoin:round" x1="209.78" y1="87.13" x2="282.7" y2="87.13"/><text transform="translate(202.307 90.227)" style="font-family:'Asap-Regular';font-size:7.2929px">0</text><text transform="translate(198.4 46.47)" style="font-family:'Asap-Regular';font-size:7.2929px">60</text><text transform="translate(194.234 16.256)" style="font-family:'Asap-Regular';font-size:7.2929px">100</text><text transform="translate(208.207 96.127)" style="font-family:'Asap-Regular';font-size:7.2929px">0</text><text transform="translate(213.937 96.127)" style="font-family:'Asap-Regular';font-size:7.2929px">10</text><text transform="translate(182.805 106.545)" style="font-family:'Asap-Regular';font-size:6.251px">Unemployed</text><text transform="translate(234.134 106.545)" style="font-family:'Asap-Regular';font-size:6.251px">Employed</text><text transform="translate(275.287 106.545)" style="font-family:'Asap-Regular';font-size:6.251px">Owners</text><text transform="translate(270.848 96.127)" style="font-family:'Asap-Regular';font-size:7.2929px">90</text><text transform="translate(280.094 96.127)" style="font-family:'Asap-Regular';font-size:7.2929px">100</text><text transform="translate(105.085 96.127)" style="font-family:'Asap-Regular';font-size:7.2929px">80</text><text transform="translate(124.62 96.127)" style="font-family:'Asap-Regular';font-size:7.2929px">90</text><line style="fill:none;stroke:#3a53a4;stroke-width:.5;stroke-linecap:square;stroke-linejoin:round;stroke-dasharray:1.4766" x1="128.66" y1="85.6" x2="128.66" y2="11.63"/><text transform="translate(109.054 8.327)" style="fill:#3a53a4;font-family:'Asap-Regular';font-size:6.251px">Labour supply</text><text transform="translate(131.826 19.266)"><tspan x="0" y="0" style="fill:#ed2124;font-family:'Asap-Regular';font-size:6.251px">Average</tspan><tspan x="0" y="7.5" style="fill:#ed2124;font-family:'Asap-Regular';font-size:6.251px">product</tspan><tspan x="0" y="15" style="fill:#ed2124;font-family:'Asap-Regular';font-size:6.251px">of labour</tspan></text><text transform="translate(218.446 8.327)" style="font-family:'Asap-Regular';font-size:6.251px">Gini coefficient: 0.36</text><text transform="translate(88.741 32.723)" style="font-family:'Asap-Regular';font-size:6.251px">Profit</text><text transform="translate(88.741 72.835)" style="font-family:'Asap-Regular';font-size:6.251px">Wage</text><text transform="translate(131.826 47.194)"><tspan x="0" y="0" style="font-family:'Asap-Regular';font-size:6.251px">Price-</tspan><tspan x="0" y="7.5" style="font-family:'Asap-Regular';font-size:6.251px">setting </tspan><tspan x="0" y="15" style="font-family:'Asap-Regular';font-size:6.251px">curve</tspan></text><text transform="translate(50.668 108.545)"><tspan x="0" y="0" style="font-family:'Asap-Medium';font-size:8.3347px">Employment, </tspan><tspan x="50.32" y="0" style="font-family:'Asap-MediumItalic';font-size:8.3347px">N</tspan></text><text transform="translate(31.81 61.982)"><tspan x="0" y="0" style="fill:#b9519e;font-family:'Asap-Regular';font-size:6.251px">Wage-setting</tspan><tspan x="0" y="7.5" style="fill:#b9519e;font-family:'Asap-Regular';font-size:6.251px">curve</tspan></text><text transform="translate(102.134 43.923)" style="font-family:'Asap-Regular';font-size:6.251px">A</text><line style="fill:none;stroke:#ed2124;stroke-width:.5;stroke-linecap:square;stroke-linejoin:round;stroke-dasharray:1.4766" x1="28.7" y1="17.33" x2="128.66" y2="17.33"/><line style="fill:none;stroke:#939598;stroke-width:.5;stroke-linecap:square;stroke-linejoin:round" x1="108.87" y1="18.98" x2="108.87" y2="42.38"/><polygon style="fill:#939598" points="106.82 20.64 107.19 20.98 108.87 19.17 110.55 20.98 110.91 20.64 108.87 18.44"/><polygon style="fill:#939598" points="106.82 40.72 107.19 40.38 108.87 42.19 110.55 40.38 110.91 40.72 108.87 42.92"/><line style="fill:none;stroke:#939598;stroke-width:.5;stroke-linecap:square;stroke-linejoin:round" x1="108.87" y1="48.05" x2="108.87" y2="85"/><polygon style="fill:#939598" points="106.82 49.71 107.19 50.05 108.87 48.25 110.55 50.05 110.91 49.71 108.87 47.51"/><polygon style="fill:#939598" points="106.82 83.34 107.19 83 108.87 84.8 110.55 83 110.91 83.34 108.87 85.54"/><line style="fill:none;stroke:#000;stroke-width:.4679;stroke-miterlimit:10" x1="28.7" y1="45.46" x2="128.66" y2="45.45"/><path style="fill:none;stroke:#b9519e;stroke-width:.5;stroke-linecap:square;stroke-linejoin:round" d="M31.19 74.74s77.2 2.08 93.43-58.6"/><circle cx="108.53" cy="45.37" r="1.13"/><line style="fill:none;stroke:#6d6e71;stroke-width:.5;stroke-linecap:square;stroke-linejoin:round" x1="218.11" y1="87.17" x2="218.11" y2="89.3"/><line style="fill:none;stroke:#6d6e71;stroke-width:.5;stroke-linecap:square;stroke-linejoin:round" x1="275.41" y1="87.17" x2="275.41" y2="89.3"/><line style="fill:none;stroke:#6d6e71;stroke-width:.5;stroke-linecap:square;stroke-linejoin:round" x1="282.7" y1="87.17" x2="282.7" y2="89.3"/><line style="fill:none;stroke:#6d6e71;stroke-width:.5;stroke-linecap:square;stroke-linejoin:round" x1="209.55" y1="44.42" x2="207.43" y2="44.42"/><line style="fill:none;stroke:#6d6e71;stroke-width:.5;stroke-linecap:square;stroke-linejoin:round" x1="209.55" y1="14.14" x2="207.43" y2="14.14"/><polyline style="fill:none;stroke:#939598;stroke-width:.5;stroke-miterlimit:10" points="210.02 97.67 210.02 100.01 218.11 100.01 218.11 97.67"/><polyline style="fill:none;stroke:#939598;stroke-width:.5;stroke-miterlimit:10" points="276.05 97.67 276.05 100.01 282.7 100.01 282.7 97.67"/><polyline style="fill:none;stroke:#939598;stroke-width:.5;stroke-miterlimit:10" points="218.87 97.67 218.87 100.01 274.88 100.01 274.88 97.67"/><text transform="translate(179.55 120.812)"><tspan x="0" y="0" style="font-family:'Asap-Medium';font-size:8.3347px">Cumulative share of the population</tspan><tspan x="2.66" y="10" style="font-family:'Asap-Medium';font-size:8.3347px">from lowest to highest income (%)</tspan></text><text transform="rotate(-90 132.206 -48.593)"><tspan x="0" y="0" style="font-family:'Asap-Medium';font-size:8.3347px">Cumulative share</tspan><tspan x="7.16" y="10" style="font-family:'Asap-Medium';font-size:8.3347px">of income (%)</tspan></text><text transform="rotate(-90 39.318 31.318)" style="font-family:'Asap-Medium';font-size:8.3347px">Real wage</text><polyline style="fill:none;stroke:#939598;stroke-width:.5;stroke-linecap:square;stroke-linejoin:round;stroke-dasharray:1.4766" points="211.37 44.42 275.41 44.42 275.41 85.42"/><polyline style="fill:none;stroke:#939598;stroke-width:.5;stroke-linecap:square;stroke-linejoin:round;stroke-dasharray:1.4766" points="211.37 14.14 282.7 14.14 282.7 86.12"/><line style="fill:none;stroke:#000;stroke-width:.5;stroke-linecap:square;stroke-linejoin:round" x1="209.78" y1="87.13" x2="282.7" y2="14.14"/><polyline style="fill:none;stroke:#3a53a4;stroke-width:.5;stroke-linecap:square;stroke-linejoin:round" points="209.78 87.13 218.11 87.13 275.41 43.92 282.7 14.14"/></svg>