<svg version="1.1" xmlns="http://www.w3.org/2000/svg" x="0" y="0" viewBox="0 0 311.81 170.88" style="enable-background:new 0 0 311.81 170.88" xml:space="preserve"><text transform="translate(194.084 36.898)" style="font-family:'Asap-Regular';font-size:6px">E</text><polyline style="fill:none;stroke:#939598;stroke-width:.5;stroke-linecap:square;stroke-miterlimit:10;stroke-dasharray:1.4173" points="191.52 144.21 191.52 38.9 80.69 38.9"/><polyline style="fill:none;stroke:#939598;stroke-width:.5;stroke-linecap:square;stroke-miterlimit:10;stroke-dasharray:1.4173" points="184.58 144.21 184.58 27.83 81.01 27.83"/><polyline style="fill:none;stroke:#939598;stroke-width:.5;stroke-linecap:square;stroke-miterlimit:10;stroke-dasharray:1.4173" points="219.55 144.31 219.55 74.42 80.72 74.42"/><line style="fill:none;stroke:#6d6e71;stroke-width:.5;stroke-linecap:square;stroke-linejoin:round" x1="80.46" y1="4.96" x2="78.33" y2="4.96"/><line style="fill:none;stroke:#6d6e71;stroke-width:.5;stroke-linecap:square;stroke-linejoin:round" x1="80.66" y1="144.43" x2="78.54" y2="144.43"/><line style="fill:none;stroke:#6d6e71;stroke-width:.5;stroke-linecap:square;stroke-linejoin:round" x1="80.53" y1="144.43" x2="80.53" y2="4.96"/><text transform="rotate(-90 80.064 20.814)" style="font-family:'Asap-Medium';font-size:8px">Final grade</text><text transform="translate(69.238 146.867)" style="font-family:'Asap-Regular';font-size:7px">0</text><text transform="translate(65.696 30.393)" style="font-family:'Asap-Regular';font-size:7px">84</text><text transform="translate(65.696 40.391)" style="font-family:'Asap-Regular';font-size:7px">75</text><text transform="translate(65.696 76.69)" style="font-family:'Asap-Regular';font-size:7px">50</text><line style="fill:none;stroke:#6d6e71;stroke-width:.5;stroke-linecap:square;stroke-linejoin:round" x1="233.14" y1="144.95" x2="233.14" y2="147.07"/><line style="fill:none;stroke:#6d6e71;stroke-width:.5;stroke-linecap:square;stroke-linejoin:round" x1="219.26" y1="144.95" x2="219.26" y2="147.07"/><line style="fill:none;stroke:#6d6e71;stroke-width:.5;stroke-linecap:square;stroke-linejoin:round" x1="205.39" y1="144.95" x2="205.39" y2="147.07"/><line style="fill:none;stroke:#6d6e71;stroke-width:.5;stroke-linecap:square;stroke-linejoin:round" x1="191.52" y1="144.95" x2="191.52" y2="147.07"/><line style="fill:none;stroke:#6d6e71;stroke-width:.5;stroke-linecap:square;stroke-linejoin:round" x1="177.64" y1="144.95" x2="177.64" y2="147.07"/><line style="fill:none;stroke:#6d6e71;stroke-width:.5;stroke-linecap:square;stroke-linejoin:round" x1="163.77" y1="144.95" x2="163.77" y2="147.07"/><line style="fill:none;stroke:#6d6e71;stroke-width:.5;stroke-linecap:square;stroke-linejoin:round" x1="149.9" y1="144.95" x2="149.9" y2="147.07"/><line style="fill:none;stroke:#6d6e71;stroke-width:.5;stroke-linecap:square;stroke-linejoin:round" x1="136.02" y1="144.95" x2="136.02" y2="147.07"/><line style="fill:none;stroke:#6d6e71;stroke-width:.5;stroke-linecap:square;stroke-linejoin:round" x1="122.15" y1="144.95" x2="122.15" y2="147.07"/><line style="fill:none;stroke:#6d6e71;stroke-width:.5;stroke-linecap:square;stroke-linejoin:round" x1="108.28" y1="144.95" x2="108.28" y2="147.07"/><line style="fill:none;stroke:#6d6e71;stroke-width:.5;stroke-linecap:square;stroke-linejoin:round" x1="247.01" y1="144.95" x2="247.01" y2="147.07"/><line style="fill:none;stroke:#6d6e71;stroke-width:.5;stroke-linecap:square;stroke-linejoin:round" x1="240.07" y1="144.95" x2="240.07" y2="147.07"/><line style="fill:none;stroke:#6d6e71;stroke-width:.5;stroke-linecap:square;stroke-linejoin:round" x1="226.2" y1="144.95" x2="226.2" y2="147.07"/><line style="fill:none;stroke:#6d6e71;stroke-width:.5;stroke-linecap:square;stroke-linejoin:round" x1="212.33" y1="144.95" x2="212.33" y2="147.07"/><line style="fill:none;stroke:#6d6e71;stroke-width:.5;stroke-linecap:square;stroke-linejoin:round" x1="198.45" y1="144.95" x2="198.45" y2="147.07"/><line style="fill:none;stroke:#6d6e71;stroke-width:.5;stroke-linecap:square;stroke-linejoin:round" x1="184.58" y1="144.95" x2="184.58" y2="147.07"/><line style="fill:none;stroke:#6d6e71;stroke-width:.5;stroke-linecap:square;stroke-linejoin:round" x1="170.71" y1="144.95" x2="170.71" y2="147.07"/><line style="fill:none;stroke:#6d6e71;stroke-width:.5;stroke-linecap:square;stroke-linejoin:round" x1="156.83" y1="144.95" x2="156.83" y2="147.07"/><line style="fill:none;stroke:#6d6e71;stroke-width:.5;stroke-linecap:square;stroke-linejoin:round" x1="142.96" y1="144.95" x2="142.96" y2="147.07"/><line style="fill:none;stroke:#6d6e71;stroke-width:.5;stroke-linecap:square;stroke-linejoin:round" x1="129.09" y1="144.95" x2="129.09" y2="147.07"/><line style="fill:none;stroke:#6d6e71;stroke-width:.5;stroke-linecap:square;stroke-linejoin:round" x1="115.21" y1="144.95" x2="115.21" y2="147.07"/><line style="fill:none;stroke:#6d6e71;stroke-width:.5;stroke-linecap:square;stroke-linejoin:round" x1="101.34" y1="144.95" x2="101.34" y2="147.07"/><line style="fill:none;stroke:#6d6e71;stroke-width:.5;stroke-linecap:square;stroke-linejoin:round" x1="94.4" y1="144.95" x2="94.4" y2="147.07"/><line style="fill:none;stroke:#6d6e71;stroke-width:.5;stroke-linecap:square;stroke-linejoin:round" x1="87.47" y1="144.95" x2="87.47" y2="147.07"/><line style="fill:none;stroke:#6d6e71;stroke-width:.5;stroke-linecap:square;stroke-linejoin:round" x1="80.53" y1="144.95" x2="80.53" y2="147.07"/><line style="fill:none;stroke:#6d6e71;stroke-width:.5;stroke-linecap:square;stroke-linejoin:round" x1="80.53" y1="144.43" x2="247.01" y2="144.43"/><text transform="translate(114.872 168.12)" style="font-family:'Asap-Medium';font-size:8px">Hours of free time per day</text><text transform="translate(78.536 155.28)" style="font-family:'Asap-Regular';font-size:7px">0</text><rect x="78.04" y="148.2" style="fill:none" width="5.04" height="9.3"/><rect x="89.92" y="148.2" style="fill:none" width="5.04" height="9.3"/><rect x="101.81" y="148.2" style="fill:none" width="5.04" height="9.3"/><rect x="113.69" y="148.2" style="fill:none" width="5.04" height="9.3"/><rect x="125.58" y="148.2" style="fill:none" width="5.04" height="9.3"/><rect x="137.46" y="148.2" style="fill:none" width="5.04" height="9.3"/><rect x="149.35" y="148.2" style="fill:none" width="5.04" height="9.3"/><rect x="173.12" y="148.2" style="fill:none" width="5.04" height="9.3"/><rect x="185" y="148.2" style="fill:none" width="5.04" height="9.3"/><rect x="195.03" y="148.2" style="fill:none" width="8.76" height="9.3"/><rect x="206.92" y="148.2" style="fill:none" width="8.76" height="9.3"/><rect x="218.8" y="148.2" style="fill:none" width="8.76" height="9.3"/><rect x="230.69" y="148.2" style="fill:none" width="8.76" height="9.3"/><text transform="translate(243.245 155.28)" style="font-family:'Asap-Regular';font-size:7px">24</text><text transform="translate(215.675 155.28)" style="font-family:'Asap-Regular';font-size:7px">20</text><text transform="translate(178.086 155.28)" style="font-family:'Asap-Regular';font-size:7px">15</text><text transform="translate(189.6 155.28)" style="font-family:'Asap-Regular';font-size:7px">16</text><rect x="242.57" y="148.2" style="fill:none" width="8.76" height="9.3"/><line style="fill:none;stroke:#6d6e71;stroke-width:.5;stroke-linecap:square;stroke-linejoin:round" x1="80.46" y1="38.9" x2="78.33" y2="38.9"/><line style="fill:none;stroke:#6d6e71;stroke-width:.5;stroke-linecap:square;stroke-linejoin:round" x1="80.46" y1="27.83" x2="78.33" y2="27.83"/><text transform="translate(62.585 7.396)" style="font-family:'Asap-Regular';font-size:7px">100</text><line style="fill:none;stroke:#6d6e71;stroke-width:.5;stroke-linecap:square;stroke-linejoin:round" x1="80.46" y1="74.42" x2="78.33" y2="74.42"/><text transform="translate(184.58 24.8)" style="font-family:'Asap-Regular';font-size:6px">A</text><circle cx="184.58" cy="27.83" r="1.13"/><text transform="translate(136.356 24.8)" style="font-family:'Asap-Regular';font-size:6px">B</text><circle cx="136.36" cy="27.83" r="1.13"/><text transform="translate(223.412 135.924)" style="font-family:'Asap-Regular';font-size:6px">C</text><text transform="translate(222.246 72.376)" style="font-family:'Asap-Regular';font-size:6px">D</text><circle cx="219.55" cy="74.42" r="1.13"/><circle cx="219.55" cy="134.5" r="1.13"/><circle cx="191.52" cy="38.9" r="1.13"/><text transform="translate(200.695 47.886)" style="font-family:'Asap-Regular';font-size:6px">F</text><circle cx="198.38" cy="49.89" r="1.13"/><text transform="translate(207.435 57.287)" style="font-family:'Asap-Regular';font-size:6px">G</text><circle cx="205.12" cy="59.29" r="1.13"/><text transform="translate(214.899 65.384)" style="font-family:'Asap-Regular';font-size:6px">H</text><circle cx="212.59" cy="67.39" r="1.13"/></svg>