<svg version="1.1" xmlns="http://www.w3.org/2000/svg" x="0" y="0" viewBox="0 0 311.81 238" style="enable-background:new 0 0 311.81 238" xml:space="preserve"><polyline style="fill:none;stroke:#939598;stroke-width:.5;stroke-miterlimit:10;stroke-dasharray:1.4173" points="66.25 120.9 139.63 120.9 139.63 206.9"/><polyline style="fill:none;stroke:#939598;stroke-width:.5;stroke-miterlimit:10;stroke-dasharray:1.4173" points="66.25 126.9 143.35 126.9 143.35 206.9"/><path style="fill:none;stroke:#3a53a4;stroke-width:.5;stroke-miterlimit:10" d="M108.84 55.72s23.5 101 105.5 118"/><line style="fill:none;stroke:#6d6e71;stroke-width:.5;stroke-linecap:square;stroke-linejoin:round" x1="65.67" y1="3.73" x2="63.54" y2="3.73"/><line style="fill:none;stroke:#6d6e71;stroke-width:.5;stroke-linecap:square;stroke-linejoin:round" x1="65.67" y1="206.9" x2="63.54" y2="206.9"/><line style="fill:none;stroke:#6d6e71;stroke-width:.5;stroke-linecap:square;stroke-linejoin:round" x1="65.84" y1="206.9" x2="65.84" y2="3.73"/><text transform="rotate(-90 79.667 49.016)" style="font-family:'Asap-Medium';font-size:8px">Consumption later ($)</text><text transform="translate(121.687 231.53)" style="font-family:'Asap-Medium';font-size:8px">Consumption now ($)</text><line style="fill:none;stroke:#6d6e71;stroke-width:.5;stroke-linecap:square;stroke-linejoin:round" x1="280.33" y1="207.19" x2="280.33" y2="209.32"/><line style="fill:none;stroke:#6d6e71;stroke-width:.5;stroke-linecap:square;stroke-linejoin:round" x1="65.84" y1="207.19" x2="65.84" y2="209.32"/><line style="fill:none;stroke:#6d6e71;stroke-width:.5;stroke-linecap:square;stroke-linejoin:round" x1="65.84" y1="206.9" x2="280.33" y2="207.19"/><text transform="translate(54.707 208.897)" style="font-family:'Asap-Regular';font-size:7px">0</text><text transform="translate(50.707 129.897)" style="font-family:'Asap-Regular';font-size:7px">50</text><text transform="translate(64.627 219.578)" style="font-family:'Asap-Regular';font-size:7px">0</text><text transform="translate(146.088 122.897)" style="font-family:'Asap-Regular';font-size:6px">A</text><circle cx="143.35" cy="126.9" r="1.13"/><circle cx="139.63" cy="120.9" r="1.13"/><text transform="translate(138.21 115.749)" style="font-family:'Asap-Regular';font-size:6px">B</text><text transform="translate(217.07 175.894)" style="font-family:'Asap-Regular';font-size:6px">Julia’s indifference curve</text><line style="fill:none;stroke:#6d6e71;stroke-width:.5;stroke-linecap:square;stroke-linejoin:round" x1="139.63" y1="207.19" x2="139.63" y2="209.32"/><line style="fill:none;stroke:#6d6e71;stroke-width:.5;stroke-linecap:square;stroke-linejoin:round" x1="65.67" y1="126.9" x2="63.54" y2="126.9"/><text transform="translate(132.627 219.578)" style="font-family:'Asap-Regular';font-size:7px">49</text><line style="fill:none;stroke:#6d6e71;stroke-width:.5;stroke-linecap:square;stroke-linejoin:round" x1="143.35" y1="207.19" x2="143.35" y2="209.32"/><text transform="translate(141.627 219.578)" style="font-family:'Asap-Regular';font-size:7px">50</text><line style="fill:none;stroke:#6d6e71;stroke-width:.5;stroke-linecap:square;stroke-linejoin:round" x1="65.67" y1="120.9" x2="63.54" y2="120.9"/><text transform="translate(45.707 122.897)" style="font-family:'Asap-Regular';font-size:7px">51.5</text></svg>