<svg version="1.1" xmlns="http://www.w3.org/2000/svg" x="0" y="0" viewBox="0 0 311.81 169.45" style="enable-background:new 0 0 311.81 169.45" xml:space="preserve"><path style="fill:#f3e9f3" d="M31 132.62s104.46-.25 159.56-62.46c0 0 22.44-23.78 27.44-57.33h11.45v127.83H28.58v-8.04H31z"/><line style="fill:none;stroke:#6d6e71;stroke-width:.5;stroke-linecap:square;stroke-linejoin:round" x1="28.54" y1="12.83" x2="26.41" y2="12.83"/><line style="fill:none;stroke:#6d6e71;stroke-width:.5;stroke-linecap:square;stroke-linejoin:round" x1="28.54" y1="140.89" x2="26.41" y2="140.89"/><line style="fill:none;stroke:#6d6e71;stroke-width:.5;stroke-linecap:square;stroke-linejoin:round" x1="28.58" y1="140.89" x2="28.58" y2="12.83"/><text transform="rotate(-90 46.312 34.4)" style="font-family:'Asap-Medium';font-size:8px">Real wage</text><line style="fill:none;stroke:#6d6e71;stroke-width:.5;stroke-linecap:square;stroke-linejoin:round" x1="229.45" y1="140.66" x2="229.45" y2="142.79"/><line style="fill:none;stroke:#6d6e71;stroke-width:.5;stroke-linecap:square;stroke-linejoin:round" x1="28.58" y1="140.66" x2="28.58" y2="142.79"/><line style="fill:none;stroke:#6d6e71;stroke-width:.5;stroke-linecap:square;stroke-linejoin:round" x1="28.58" y1="140.89" x2="239.01" y2="140.89"/><text transform="translate(93.453 154.862)" style="font-family:'Asap-Regular';font-size:6.2871px">Employed</text><text transform="translate(192.25 154.862)" style="font-family:'Asap-Regular';font-size:6.2871px">Unemployed</text><text transform="translate(19.282 142.06)" style="font-family:'Asap-Regular';font-size:6px">0</text><text transform="translate(111.703 127.784)"><tspan x="0" y="0" style="font-family:'Asap-Regular';font-size:6px">No work done: wage is</tspan><tspan x="0" y="7.2" style="font-family:'Asap-Regular';font-size:6px">too low for adequate effort</tspan></text><text transform="translate(232.669 48.08)"><tspan x="0" y="0" style="fill:#ed2124;font-family:'Asap-Regular';font-size:6px">Average product of labour, </tspan><tspan x="72.27" y="0" style="fill:#ed2124;font-family:'SourceSansPro-Regular';font-size:6px">λ</tspan></text><text transform="translate(232.669 70.845)" style="font-family:'Asap-Regular';font-size:6px">Price-setting curve</text><text transform="translate(232.668 15.164)" style="fill:#3a53a4;font-family:'Asap-Regular';font-size:6px">Labour supply</text><text transform="translate(59.65 112.165)" style="fill:#b9519e;font-family:'Asap-Regular';font-size:6px">Wage-setting curve</text><text transform="translate(127.263 165.394)"><tspan x="0" y="0" style="font-family:'Asap-Medium';font-size:8px">Employment, </tspan><tspan x="48.3" y="0" style="font-family:'Asap-MediumItalic';font-size:8px">N</tspan></text><line style="fill:none;stroke:#ed2124;stroke-width:.5;stroke-miterlimit:10;stroke-dasharray:1.4173" x1="28.81" y1="46.41" x2="229" y2="46.41"/><line style="fill:none;stroke:#6d6e71;stroke-width:.5;stroke-linecap:square;stroke-linejoin:round" x1="190.45" y1="141" x2="190.45" y2="143.12"/><line style="fill:none;stroke:#939598;stroke-width:.4672;stroke-linecap:square;stroke-linejoin:round;stroke-dasharray:1.4173" x1="190.45" y1="141" x2="190.56" y2="70.16"/><text transform="translate(185.472 64.328)" style="font-family:'Asap-Regular';font-size:6px">X</text><line style="fill:none;stroke:#939598;stroke-width:.5;stroke-linecap:square;stroke-linejoin:round" x1="193.79" y1="145.7" x2="226.21" y2="145.7"/><polygon style="fill:#939598" points="195.45 147.75 195.79 147.38 193.98 145.7 195.79 144.02 195.45 143.66 193.25 145.7"/><polygon style="fill:#939598" points="224.55 147.75 224.21 147.38 226.02 145.7 224.21 144.02 224.55 143.66 226.75 145.7"/><line style="fill:none;stroke:#939598;stroke-width:.5;stroke-linecap:square;stroke-linejoin:round" x1="32.44" y1="145.7" x2="186.86" y2="145.7"/><polygon style="fill:#939598" points="34.1 147.75 34.44 147.38 32.63 145.7 34.44 144.02 34.1 143.66 31.9 145.7"/><polygon style="fill:#939598" points="185.2 147.75 184.86 147.38 186.67 145.7 184.86 144.02 185.2 143.66 187.4 145.7"/><path style="fill:none;stroke:#b9519e;stroke-width:.5;stroke-miterlimit:10" d="M31 132.62s104.46-.25 159.56-62.46c0 0 22.44-23.78 27.44-57.33"/><line style="fill:none;stroke:#3a53a4;stroke-width:.5;stroke-miterlimit:10;stroke-dasharray:1.4173" x1="229.45" y1="9.62" x2="229.45" y2="140.66"/><line style="fill:none;stroke:#000;stroke-width:.4491;stroke-miterlimit:10" x1="28.81" y1="69.59" x2="229" y2="69.59"/><circle cx="190.56" cy="69.71" r="1.13"/></svg>