<svg version="1.1" xmlns="http://www.w3.org/2000/svg" x="0" y="0" viewBox="0 0 311.81 266.43" style="enable-background:new 0 0 311.81 266.43" xml:space="preserve"><polygon style="fill:#fee7dc" points="60.84 100.68 60.67 231.9 224.33 232.19"/><line style="fill:none;stroke:#6d6e71;stroke-width:.5;stroke-linecap:square;stroke-linejoin:round" x1="60.67" y1="28.73" x2="58.54" y2="28.73"/><line style="fill:none;stroke:#6d6e71;stroke-width:.5;stroke-linecap:square;stroke-linejoin:round" x1="60.67" y1="231.9" x2="58.54" y2="231.9"/><line style="fill:none;stroke:#6d6e71;stroke-width:.5;stroke-linecap:square;stroke-linejoin:round" x1="60.84" y1="231.9" x2="60.84" y2="28.73"/><line style="fill:none;stroke:#6d6e71;stroke-width:.5;stroke-linecap:square;stroke-linejoin:round" x1="275.33" y1="232.19" x2="275.33" y2="234.32"/><line style="fill:none;stroke:#6d6e71;stroke-width:.5;stroke-linecap:square;stroke-linejoin:round" x1="60.84" y1="232.19" x2="60.84" y2="234.32"/><line style="fill:none;stroke:#6d6e71;stroke-width:.5;stroke-linecap:square;stroke-linejoin:round" x1="60.84" y1="231.9" x2="275.33" y2="232.19"/><text transform="translate(48.707 233.897)" style="font-family:'Asap-Regular';font-size:7px">0</text><text transform="translate(59.627 245.578)" style="font-family:'Asap-Regular';font-size:7px">0</text><line style="fill:none;stroke:#6d6e71;stroke-width:.5;stroke-linecap:square;stroke-linejoin:round" x1="224.33" y1="232.19" x2="224.33" y2="234.32"/><line style="fill:none;stroke:#6d6e71;stroke-width:.5;stroke-linecap:square;stroke-linejoin:round" x1="174.43" y1="232.18" x2="174.43" y2="234.31"/><text transform="translate(170.627 245.578)" style="font-family:'Asap-Regular';font-size:7px">68</text><text transform="translate(219.627 245.578)" style="font-family:'Asap-Regular';font-size:7px">100</text><polyline style="fill:none;stroke:#939598;stroke-width:.5;stroke-miterlimit:10;stroke-dasharray:1.4173" points="60.84 192.35 174.43 192.35 174.43 231.9"/><text transform="translate(67.338 8.66)" style="font-family:'Asap-Regular';font-size:6px">FF (store grain; 20% losses)</text><line style="fill:none;stroke:#888;stroke-width:.5;stroke-miterlimit:10" x1="67.34" y1="12.66" x2="67.34" y2="101.19"/><polygon style="fill:#888" points="65.29 99.53 65.66 99.19 67.34 101 69.02 99.19 69.38 99.53 67.34 101.73"/><line style="fill:none;stroke:#a01d20;stroke-width:.5;stroke-miterlimit:10" x1="60.84" y1="100.68" x2="224.33" y2="232.19"/><text transform="translate(44.707 195.355)" style="font-family:'Asap-Regular';font-size:7px">26</text><line style="fill:none;stroke:#6d6e71;stroke-width:.5;stroke-linecap:square;stroke-linejoin:round" x1="60.67" y1="192.35" x2="58.54" y2="192.35"/><path style="fill:none;stroke:#3a53a4;stroke-width:.5;stroke-miterlimit:10" d="M117.64 78.76s7.7 115.01 103.07 133.57"/><text transform="translate(224.326 214.262)" style="font-family:'Asap-Regular';font-size:6px">Marco’s IC (low utility)</text><text transform="translate(44.707 102.355)" style="font-family:'Asap-Regular';font-size:7px">80</text><line style="fill:none;stroke:#6d6e71;stroke-width:.5;stroke-linecap:square;stroke-linejoin:round" x1="60.67" y1="100.68" x2="58.54" y2="100.68"/><circle cx="60.84" cy="100.68" r="1.13"/><line style="fill:none;stroke:#939598;stroke-width:.5;stroke-miterlimit:10" x1="178.43" y1="200.06" x2="215.53" y2="229.91"/><polygon style="fill:#939598" points="178.44 202.69 178.93 202.62 178.58 200.18 181.04 200 181 199.5 178 199.72"/><circle cx="174.43" cy="192.35" r="1.13"/><text transform="translate(177.005 190.938)" style="font-family:'Asap-Regular';font-size:6px">H</text><text transform="rotate(-90 91.168 62.516)" style="font-family:'Asap-Medium';font-size:8px">Consumption later ($)</text><text transform="translate(128.687 260.53)" style="font-family:'Asap-Medium';font-size:8px">Consumption now ($)</text><path style="fill:none;stroke:#5b73b8;stroke-width:.5;stroke-miterlimit:10" d="M109.09 108.76s19.59 101.67 115.23 123.43"/><text transform="translate(225.46 227.262)" style="font-family:'Asap-Regular';font-size:6px">Marco’s reservation IC</text><circle cx="224.33" cy="232.19" r="1.13"/></svg>