<svg version="1.1" xmlns="http://www.w3.org/2000/svg" x="0" y="0" viewBox="0 0 311.81 266.43" style="enable-background:new 0 0 311.81 266.43" xml:space="preserve"><path style="fill:none;stroke:#5b73b8;stroke-width:.5;stroke-miterlimit:10" d="M109.09 108.76s19.59 101.67 115.23 123.43"/><line style="fill:none;stroke:#6d6e71;stroke-width:.5;stroke-linecap:square;stroke-linejoin:round" x1="60.67" y1="28.73" x2="58.54" y2="28.73"/><line style="fill:none;stroke:#6d6e71;stroke-width:.5;stroke-linecap:square;stroke-linejoin:round" x1="60.67" y1="231.9" x2="58.54" y2="231.9"/><line style="fill:none;stroke:#6d6e71;stroke-width:.5;stroke-linecap:square;stroke-linejoin:round" x1="60.84" y1="231.9" x2="60.84" y2="28.73"/><line style="fill:none;stroke:#6d6e71;stroke-width:.5;stroke-linecap:square;stroke-linejoin:round" x1="275.33" y1="232.19" x2="275.33" y2="234.32"/><line style="fill:none;stroke:#6d6e71;stroke-width:.5;stroke-linecap:square;stroke-linejoin:round" x1="60.84" y1="232.19" x2="60.84" y2="234.32"/><line style="fill:none;stroke:#6d6e71;stroke-width:.5;stroke-linecap:square;stroke-linejoin:round" x1="60.84" y1="231.9" x2="275.33" y2="232.19"/><text transform="translate(48.707 233.897)" style="font-family:'Asap-Regular';font-size:7px">0</text><text transform="translate(59.627 245.578)" style="font-family:'Asap-Regular';font-size:7px">0</text><line style="fill:none;stroke:#6d6e71;stroke-width:.5;stroke-linecap:square;stroke-linejoin:round" x1="224.33" y1="232.19" x2="224.33" y2="234.32"/><text transform="translate(219.627 245.578)" style="font-family:'Asap-Regular';font-size:7px">100</text><path style="fill:none;stroke:#3a53a4;stroke-width:.5;stroke-miterlimit:10" d="M117.64 78.76s7.7 115.01 103.07 133.57"/><text transform="translate(224.326 214.262)" style="font-family:'Asap-Regular';font-size:6px">Marco’s IC (low utility)</text><text transform="translate(225.46 227.262)" style="font-family:'Asap-Regular';font-size:6px">Marco’s reservation IC</text><circle cx="224.33" cy="232.19" r="1.13"/><text transform="rotate(-90 91.168 62.516)" style="font-family:'Asap-Medium';font-size:8px">Consumption later ($)</text><text transform="translate(128.687 260.53)" style="font-family:'Asap-Medium';font-size:8px">Consumption now ($)</text><path style="fill:none;stroke:#273a71;stroke-width:.5;stroke-miterlimit:10" d="M130.34 73.43s3 111.33 98.47 130.43"/><text transform="translate(128.687 67.19)" style="font-family:'Asap-Regular';font-size:6px">Marco’s IC (medium utility)</text></svg>