<svg version="1.1" xmlns="http://www.w3.org/2000/svg" x="0" y="0" viewBox="0 0 311.81 272.61" style="enable-background:new 0 0 311.81 272.61" xml:space="preserve"><polygon style="fill:#fee7dc" points="59.84 61.73 223.33 241.19 161.33 241.05"/><polygon style="fill:#fcd3c1" points="59.84 61.73 161.33 241.05 59.84 240.9"/><path style="fill:none;stroke:#3a53a4;stroke-width:.5;stroke-miterlimit:10" d="M119.05 53.36s11.25 143.5 108.75 159.5"/><line style="fill:none;stroke:#6d6e71;stroke-width:.5;stroke-linecap:square;stroke-linejoin:round" x1="59.67" y1="37.73" x2="57.54" y2="37.73"/><line style="fill:none;stroke:#6d6e71;stroke-width:.5;stroke-linecap:square;stroke-linejoin:round" x1="59.67" y1="240.9" x2="57.54" y2="240.9"/><line style="fill:none;stroke:#6d6e71;stroke-width:.5;stroke-linecap:square;stroke-linejoin:round" x1="59.84" y1="240.9" x2="59.84" y2="37.73"/><line style="fill:none;stroke:#6d6e71;stroke-width:.5;stroke-linecap:square;stroke-linejoin:round" x1="274.33" y1="241.19" x2="274.33" y2="243.32"/><line style="fill:none;stroke:#6d6e71;stroke-width:.5;stroke-linecap:square;stroke-linejoin:round" x1="59.84" y1="241.19" x2="59.84" y2="243.32"/><line style="fill:none;stroke:#6d6e71;stroke-width:.5;stroke-linecap:square;stroke-linejoin:round" x1="59.84" y1="240.9" x2="274.33" y2="241.19"/><line style="fill:none;stroke:#6d6e71;stroke-width:.5;stroke-linecap:square;stroke-linejoin:round" x1="223.33" y1="241.19" x2="223.33" y2="243.32"/><line style="fill:none;stroke:#6d6e71;stroke-width:.5;stroke-linecap:square;stroke-linejoin:round" x1="168.33" y1="241.19" x2="168.33" y2="243.32"/><line style="fill:none;stroke:#6d6e71;stroke-width:.5;stroke-linecap:square;stroke-linejoin:round" x1="161.33" y1="241.19" x2="161.33" y2="243.32"/><line style="fill:none;stroke:#6d6e71;stroke-width:.5;stroke-linecap:square;stroke-linejoin:round" x1="123.33" y1="241.19" x2="123.33" y2="243.32"/><line style="fill:none;stroke:#6d6e71;stroke-width:.5;stroke-linecap:square;stroke-linejoin:round" x1="59.67" y1="61.73" x2="57.54" y2="61.73"/><line style="fill:none;stroke:#6d6e71;stroke-width:.5;stroke-linecap:square;stroke-linejoin:round" x1="59.67" y1="173.44" x2="57.54" y2="173.44"/><polyline style="fill:none;stroke:#939598;stroke-width:.5;stroke-miterlimit:10;stroke-dasharray:1.4173" points="59.84 179.78 168.33 179.78 168.33 241.19"/><polyline style="fill:none;stroke:#939598;stroke-width:.5;stroke-miterlimit:10;stroke-dasharray:1.4173" points="59.84 173.44 123.33 173.44 123.33 241.19"/><line style="fill:none;stroke:#939598;stroke-width:.5;stroke-miterlimit:10" x1="67.7" y1="14" x2="67.7" y2="67.8"/><polygon style="fill:#939598" points="65.66 66.14 66.02 65.8 67.7 67.6 69.38 65.8 69.75 66.14 67.7 68.34"/><line style="fill:none;stroke:#888;stroke-width:.5;stroke-miterlimit:10" x1="23.55" y1="61.73" x2="35.08" y2="61.73"/><polygon style="fill:#888" points="33.42 63.77 33.08 63.41 34.89 61.73 33.08 60.05 33.42 59.69 35.62 61.73"/><line style="fill:none;stroke:#939598;stroke-width:.5;stroke-miterlimit:10" x1="77.34" y1="26.14" x2="77.34" y2="87.5"/><polygon style="fill:#939598" points="75.29 85.85 75.66 85.51 77.34 87.31 79.02 85.51 79.38 85.85 77.34 88.05"/><line style="fill:none;stroke:#ed2124;stroke-width:.5;stroke-miterlimit:10" x1="59.84" y1="61.73" x2="223.33" y2="241.19"/><line style="fill:none;stroke:#a01d20;stroke-width:.5;stroke-miterlimit:10" x1="59.84" y1="61.73" x2="161.33" y2="241.05"/><line style="fill:none;stroke:#939598;stroke-width:.5;stroke-miterlimit:10" x1="65.28" y1="56.81" x2="122.31" y2="157.59"/><polygon style="fill:#939598" points="119.72 157.15 119.87 156.67 122.22 157.42 122.79 155.02 123.28 155.14 122.58 158.06"/><line style="fill:none;stroke:#6d6e71;stroke-width:.5;stroke-linecap:square;stroke-linejoin:round" x1="59.67" y1="179.73" x2="57.54" y2="179.73"/><path style="fill:none;stroke:#a1b0da;stroke-width:.5;stroke-miterlimit:10" d="M91.58 70.94s11.25 143.5 108.75 159.5"/><path style="fill:none;stroke:#5b73b8;stroke-width:.5;stroke-miterlimit:10" d="M106.95 61.83s11.25 143.5 108.75 159.5"/><path style="fill:none;stroke:#273a71;stroke-width:.5;stroke-miterlimit:10" d="M145.96 34.36s11.25 143.5 108.75 159.5"/><text transform="translate(47.707 242.897)" style="font-family:'Asap-Regular';font-size:7px">0</text><text transform="translate(43.707 175.355)" style="font-family:'Asap-Regular';font-size:7px">38</text><text transform="translate(58.627 254.578)" style="font-family:'Asap-Regular';font-size:7px">0</text><text transform="translate(39.707 64.355)" style="font-family:'Asap-Regular';font-size:7px">100</text><text transform="translate(119.627 254.578)" style="font-family:'Asap-Regular';font-size:7px">35</text><text transform="translate(154.627 254.578)" style="font-family:'Asap-Regular';font-size:7px">56</text><text transform="translate(164.627 254.578)" style="font-family:'Asap-Regular';font-size:7px">58</text><text transform="translate(219.627 254.578)" style="font-family:'Asap-Regular';font-size:7px">91</text><text transform="translate(64.171 8.41)" style="font-family:'Asap-Regular';font-size:6px">FF (10% interest rate)</text><text transform="translate(74.171 21.66)" style="font-family:'Asap-Regular';font-size:6px">FF (78% interest rate)</text><text transform="translate(169.672 177.762)" style="font-family:'Asap-Regular';font-size:6px">E</text><text transform="translate(124.743 171.262)" style="font-family:'Asap-Regular';font-size:6px">G</text><text transform="translate(2.338 63.355)"><tspan x="0" y="0" style="font-family:'Asap-Regular';font-size:6px">Julia’s </tspan><tspan x="0" y="7.2" style="font-family:'Asap-Regular';font-size:6px">endowment</tspan></text><circle cx="161.33" cy="241.05" r="1.13"/><circle cx="223.33" cy="241.19" r="1.13"/><circle cx="168.33" cy="180.18" r="1.13"/><circle cx="59.84" cy="61.73" r="1.13"/><text transform="translate(43.707 183.355)" style="font-family:'Asap-Regular';font-size:7px">36</text><circle cx="123.33" cy="173.44" r="1.13"/><text transform="translate(115.687 138.262)" style="font-family:'Asap-Regular';font-size:6px">F</text><circle cx="123.33" cy="131.69" r="1.13"/><text transform="translate(219.627 233.929)" style="font-family:'Asap-Regular';font-size:6px">Julia’s IC (lower utility)</text><text transform="translate(219.627 223.929)" style="font-family:'Asap-Regular';font-size:6px">Julia’s IC (through point F)</text><text transform="translate(234.627 212.857)" style="font-family:'Asap-Regular';font-size:6px">Julia’s IC</text><text transform="translate(245.96 186.317)" style="font-family:'Asap-Regular';font-size:6px">Julia’s IC (higher utility)</text><text transform="rotate(-90 95.167 67.516)" style="font-family:'Asap-Medium';font-size:8px">Consumption later ($)</text><text transform="translate(127.687 266.53)" style="font-family:'Asap-Medium';font-size:8px">Consumption now ($)</text></svg>