<svg version="1.1" xmlns="http://www.w3.org/2000/svg" x="0" y="0" viewBox="0 0 311.81 192.42" style="enable-background:new 0 0 311.81 192.42" xml:space="preserve"><line style="fill:none;stroke:#6d6e71;stroke-width:.5202;stroke-linecap:square;stroke-linejoin:round" x1="33" y1="5.54" x2="30.87" y2="5.54"/><line style="fill:none;stroke:#6d6e71;stroke-width:.5202;stroke-linecap:square;stroke-linejoin:round" x1="33" y1="153.12" x2="30.87" y2="153.12"/><line style="fill:none;stroke:#6d6e71;stroke-width:.5202;stroke-linecap:square;stroke-linejoin:round" x1="33.02" y1="153.12" x2="33.02" y2="5.54"/><text transform="rotate(-90 53.563 43.644)"><tspan x="0" y="0" style="font-family:'Asap-Medium';font-size:8px">Price, </tspan><tspan x="21.3" y="0" style="font-family:'Asap-MediumItalic';font-size:8px">p</tspan><tspan x="25.89" y="0" style="font-family:'Asap-Medium';font-size:8px"> ($)</tspan></text><line style="fill:none;stroke:#6d6e71;stroke-width:.5202;stroke-linecap:square;stroke-linejoin:round" x1="290.32" y1="153.43" x2="290.32" y2="155.55"/><line style="fill:none;stroke:#6d6e71;stroke-width:.5202;stroke-linecap:square;stroke-linejoin:round" x1="33.02" y1="153.43" x2="33.02" y2="155.55"/><line style="fill:none;stroke:#6d6e71;stroke-width:.5202;stroke-linecap:square;stroke-linejoin:round" x1="33.02" y1="153.12" x2="290.32" y2="153.12"/><text transform="translate(21.338 124.034)" style="font-family:'Asap-Italic';font-size:7px">W</text><text transform="translate(21.338 102.034)"><tspan x="0" y="0" style="font-family:'Asap-Italic';font-size:7px">p</tspan><tspan x="4.01" y="0" style="font-family:'Asap-Regular';font-size:7px">*</tspan></text><text transform="translate(143.005 164.368)"><tspan x="0" y="0" style="font-family:'Asap-Italic';font-size:7px">q</tspan><tspan x="3.96" y="0" style="font-family:'Asap-Regular';font-size:7px">*</tspan></text><text transform="translate(66.619 24.701)" style="font-family:'Asap-Regular';font-size:6px">Isoprofit curves</text><text transform="translate(221.672 24.701)" style="font-family:'Asap-Regular';font-size:6px">Profit per unit output</text><text transform="translate(221.672 51.367)" style="font-family:'Asap-Regular';font-size:6px">Wage per unit output</text><text transform="translate(291.338 93.368)" style="font-family:'Asap-Regular';font-size:6px">Wage</text><text transform="translate(72.288 79.969)" style="font-family:'Asap-Regular';font-size:6px">C</text><text transform="translate(144.037 95.868)" style="font-family:'Asap-Regular';font-size:6px">B</text><text transform="translate(238.338 139.034)"><tspan x="0" y="0" style="fill:#ed2124;font-family:'Asap-Regular';font-size:6px">Demand curve (given</tspan><tspan x="0" y="7.2" style="fill:#ed2124;font-family:'Asap-Regular';font-size:6px">economy-wide demand)</tspan></text><line style="fill:none;stroke:#ed2124;stroke-width:.5;stroke-miterlimit:10" x1="33.28" y1="72.7" x2="278.34" y2="131.7"/><text transform="translate(208.606 113.202)" style="font-family:'Asap-Regular';font-size:6px">A</text><polyline style="fill:none;stroke:#939598;stroke-width:.5;stroke-miterlimit:10;stroke-dasharray:1.4173" points="33.28 99.87 145.17 99.87 145.17 153.12"/><line style="fill:none;stroke:#939598;stroke-width:.5;stroke-miterlimit:10" x1="141.01" y1="102.74" x2="141.01" y2="119.83"/><polygon style="fill:#939598" points="138.96 104.4 139.33 104.74 141 102.94 142.68 104.74 143.05 104.4 141 102.2"/><polygon style="fill:#939598" points="138.96 118.17 139.33 117.83 141 119.63 142.68 117.83 143.05 118.17 141 120.37"/><line style="fill:none;stroke:#939598;stroke-width:.5;stroke-miterlimit:10" x1="141.01" y1="127.04" x2="141.01" y2="150.12"/><polygon style="fill:#939598" points="138.96 128.69 139.33 129.03 141 127.23 142.68 129.03 143.05 128.69 141 126.49"/><polygon style="fill:#939598" points="138.96 148.46 139.33 148.12 141 149.93 142.68 148.12 143.05 148.46 141 150.66"/><line style="fill:none;stroke:#939598;stroke-width:.5;stroke-miterlimit:10" x1="218.34" y1="24.46" x2="148.69" y2="106.79"/><polygon style="fill:#939598" points="148.2 104.21 148.7 104.18 148.81 106.65 151.26 106.35 151.32 106.85 148.34 107.21"/><line style="fill:none;stroke:#939598;stroke-width:.5;stroke-miterlimit:10" x1="218.34" y1="51.37" x2="150.36" y2="131.29"/><polygon style="fill:#939598" points="149.87 128.7 150.37 128.68 150.48 131.14 152.93 130.85 152.99 131.35 150 131.7"/><polyline style="fill:none;stroke:#939598;stroke-width:.5;stroke-miterlimit:10" points="299 97.6 299 122.03 293.88 122.03"/><polygon style="fill:#939598" points="295.54 119.99 295.88 120.36 294.07 122.03 295.88 123.71 295.54 124.08 293.34 122.03"/><text transform="translate(89.227 183.045)"><tspan x="0" y="0" style="font-family:'Asap-Medium';font-size:8px">Units of output, </tspan><tspan x="56.33" y="0" style="font-family:'Asap-MediumItalic';font-size:8px">q</tspan><tspan x="60.85" y="0" style="font-family:'Asap-Medium';font-size:8px"> (and hours of labour, </tspan><tspan x="137.92" y="0" style="font-family:'Asap-MediumItalic';font-size:8px">n</tspan><tspan x="142.37" y="0" style="font-family:'Asap-Medium';font-size:8px">)</tspan></text><line style="fill:none;stroke:#6d6e71;stroke-width:.5202;stroke-linecap:square;stroke-linejoin:round" x1="145.17" y1="153.43" x2="145.17" y2="155.55"/><line style="fill:none;stroke:#6d6e71;stroke-width:.5202;stroke-linecap:square;stroke-linejoin:round" x1="33" y1="122.03" x2="30.87" y2="122.03"/><line style="fill:none;stroke:#6d6e71;stroke-width:.5202;stroke-linecap:square;stroke-linejoin:round" x1="33" y1="99.87" x2="30.87" y2="99.87"/><path style="fill:none;stroke:#3a53a4;stroke-width:.5;stroke-miterlimit:10" d="M42.34 5.54s-3.33 97.16 62.67 103.16c0 0 44.67 7.33 107 9.33l78.31 2.33"/><line style="fill:none;stroke:#273a71;stroke-width:.5;stroke-miterlimit:10" x1="33.28" y1="122.03" x2="290.32" y2="122.03"/><path style="fill:none;stroke:#a1b0da;stroke-width:.5;stroke-miterlimit:10" d="M56.84 5.54s6.83 80.83 93.17 94.33c0 0 70.29 12 140.31 13.25"/><path style="fill:none;stroke:#5b73b8;stroke-width:.5;stroke-miterlimit:10" d="M47 5.54s2 79.83 52 94.33c0 0 43.96 15.5 191.31 18.17"/><circle cx="206.34" cy="114.53" r="1.13"/><circle cx="145.17" cy="99.87" r="1.13"/><circle cx="72" cy="82.28" r="1.13"/></svg>