<svg version="1.1" xmlns="http://www.w3.org/2000/svg" x="0" y="0" viewBox="0 0 311.81 182" style="enable-background:new 0 0 311.81 182" xml:space="preserve"><path style="fill:none;stroke:#010101;stroke-miterlimit:10" d="M170.34 142.5h-96c-4.68 0-8.5-3.83-8.5-8.5V83"/><path style="fill:#27aae1" d="M68.67 88v46c0 3.13 2.54 5.67 5.67 5.67h149c3.13 0 5.67-2.54 5.67-5.67V88H68.67z"/><rect x="73.57" y="142.31" style="fill:#010101" width="19.52" height="3.19"/><rect x="204.07" y="142.31" style="fill:#010101" width="19.52" height="3.19"/><path style="fill:none;stroke:#010101;stroke-miterlimit:10" d="M212.84 12.37c0-4.68 3.83-8.5 8.5-8.5h.99c4.68 0 9.5 3.83 9.5 8.5V134c0 4.68-3.83 8.5-8.5 8.5H191"/><rect x="202.32" y="10.3" transform="rotate(-134.999 212.08 11.892)" style="fill:#010101" width="19.52" height="3.19"/><rect x="200.25" y="13.44" transform="rotate(-134.999 210.009 13.963)" style="fill:#010101" width="19.52" height="1.05"/><polyline style="fill:#27aae1" points="172.34 139.67 172.34 145.5 188.34 145.5 188.34 139.67"/><text transform="translate(131.672 113.835)" style="fill:#fff;font-family:'Asap-Medium';font-size:8px">Wealth</text><text transform="translate(64.338 54.834)" style="fill:#27aae1;font-family:'Asap-Medium';font-size:8px">Depreciation</text><text transform="translate(153.672 34.835)"><tspan x="0" y="0" style="fill:#27aae1;font-family:'Asap-Medium';font-size:8px">Gross</tspan><tspan x="0" y="9.6" style="fill:#27aae1;font-family:'Asap-Medium';font-size:8px">income</tspan></text><text transform="translate(156.672 175.834)" style="fill:#27aae1;font-family:'Asap-Medium';font-size:8px">Consumption</text><line style="fill:none;stroke:#27aae1;stroke-width:.5;stroke-miterlimit:10;stroke-dasharray:1.4173,1.4173" x1="77" y1="83" x2="77" y2="63.88"/><polygon style="fill:#27aae1" points="79.05 65.53 78.68 65.87 77.01 64.07 75.33 65.87 74.96 65.53 77.01 63.33"/><line style="fill:none;stroke:#27aae1;stroke-width:.5;stroke-miterlimit:10;stroke-dasharray:1.4173,1.4173" x1="87" y1="83" x2="87" y2="63.88"/><polygon style="fill:#27aae1" points="89.05 65.53 88.68 65.87 87.01 64.07 85.33 65.87 84.96 65.53 87.01 63.33"/><line style="fill:none;stroke:#27aae1;stroke-width:.5;stroke-miterlimit:10;stroke-dasharray:1.4173,1.4173" x1="97" y1="83" x2="97" y2="63.88"/><polygon style="fill:#27aae1" points="99.05 65.53 98.68 65.87 97.01 64.07 95.33 65.87 94.96 65.53 97.01 63.33"/><line style="fill:none;stroke:#27aae1;stroke-width:.5;stroke-miterlimit:10" x1="186.34" y1="145.5" x2="186.34" y2="164.63"/><polygon style="fill:#27aae1" points="184.29 162.97 184.66 162.63 186.34 164.44 188.02 162.63 188.38 162.97 186.34 165.17"/><g><line style="fill:none;stroke:#27aae1;stroke-width:.5;stroke-miterlimit:10" x1="180.34" y1="145.5" x2="180.34" y2="164.63"/><polygon style="fill:#27aae1" points="178.29 162.97 178.66 162.63 180.34 164.44 182.02 162.63 182.38 162.97 180.34 165.17"/></g><g><line style="fill:none;stroke:#27aae1;stroke-width:.5;stroke-miterlimit:10" x1="174.34" y1="145.5" x2="174.34" y2="164.63"/><polygon style="fill:#27aae1" points="172.29 162.97 172.66 162.63 174.34 164.44 176.02 162.63 176.38 162.97 174.34 165.17"/></g><g><line style="fill:none;stroke:#27aae1;stroke-width:.5;stroke-miterlimit:10" x1="210.73" y1="22.45" x2="190.1" y2="43.08"/><polygon style="fill:#27aae1" points="189.82 40.47 190.32 40.48 190.23 42.95 192.7 42.86 192.71 43.36 189.71 43.47"/></g><g><line style="fill:none;stroke:#27aae1;stroke-width:.5;stroke-miterlimit:10" x1="206.49" y1="18.2" x2="185.85" y2="38.84"/><polygon style="fill:#27aae1" points="185.58 36.22 186.08 36.24 185.99 38.7 188.45 38.61 188.47 39.11 185.47 39.22"/></g><g><line style="fill:none;stroke:#27aae1;stroke-width:.5;stroke-miterlimit:10" x1="202.25" y1="13.96" x2="181.61" y2="34.6"/><polygon style="fill:#27aae1" points="181.34 31.98 181.84 32 181.75 34.46 184.21 34.37 184.23 34.87 181.23 34.98"/></g></svg>